<svg width="171" height="57" viewBox="0 0 171 57" fill="none" xmlns="http://www.w3.org/2000/svg">
<mask id="mask0_1_2" style="mask-type:luminance" maskUnits="userSpaceOnUse" x="13" y="0" width="29" height="57">
<path d="M13.7114 0.867943H41.7986V56.8806H13.7114V0.867943Z" fill="white"/>
</mask>
<g mask="url(#mask0_1_2)">
<path d="M41.746 47.8425L41.7325 47.4552C41.7305 47.3242 41.7093 47.2008 41.6978 47.0756L41.6554 46.6959L41.6323 46.5071L41.5995 46.3221C41.4434 45.3277 41.1601 44.3931 40.8287 43.4873C40.6687 43.0306 40.476 42.597 40.2872 42.1557C40.0867 41.7241 39.8863 41.2905 39.6666 40.8742C39.233 40.0302 38.7609 39.2131 38.256 38.4172C37.753 37.6194 37.2231 36.8389 36.6681 36.0777C35.5639 34.5457 34.3652 33.0792 33.1049 31.6454C32.4748 30.9305 31.8273 30.2252 31.1624 29.5295C30.4937 28.8319 29.8192 28.1497 29.0966 27.4656C28.4472 26.847 27.7939 26.1918 27.1618 25.5385C26.5278 24.8814 25.9092 24.2165 25.306 23.544C24.1054 22.1969 22.9588 20.8268 21.9143 19.4258C21.3882 18.7282 20.8891 18.0209 20.4228 17.3079C19.9506 16.5968 19.5151 15.8761 19.1201 15.1515C18.9177 14.7911 18.7404 14.425 18.5593 14.0627C18.3936 13.6985 18.2201 13.3343 18.0814 12.97C17.7923 12.2416 17.5514 11.5132 17.4204 10.8079C17.1467 9.4377 17.2585 7.99239 17.7422 6.81302C17.9889 6.22333 18.33 5.70109 18.7443 5.26557C19.1567 4.82812 19.6577 4.50437 20.1935 4.27312C21.2745 3.82604 22.5329 3.84916 23.7046 4.2789C24.2904 4.49088 24.857 4.79921 25.385 5.17307L25.4852 5.24052L25.5835 5.31567L25.8013 5.48526C25.8668 5.53729 25.9323 5.58932 25.9901 5.6452C26.0518 5.70109 26.1135 5.74927 26.1713 5.80901L26.5239 6.15588C26.998 6.61645 27.4393 7.0751 27.8825 7.52411C28.0772 7.31213 28.2718 7.10015 28.4664 6.8901L28.7555 6.57599L29.0503 6.26765C29.2469 6.06338 29.4396 5.85526 29.6362 5.65869L29.7846 5.51802C29.8366 5.47177 29.8925 5.42744 29.9445 5.38119L30.1064 5.23859C30.2104 5.14223 30.3222 5.06322 30.4321 4.97843C30.5419 4.89557 30.6479 4.805 30.7635 4.73369C30.8753 4.65854 30.989 4.58145 31.1007 4.5063C31.2183 4.44078 31.3339 4.37333 31.4496 4.30781C31.9178 4.05536 32.3996 3.8588 32.8872 3.72968C33.3766 3.59864 33.8719 3.54661 34.3556 3.55817C35.3211 3.58708 36.2538 3.89156 37.0111 4.4427C37.3907 4.71635 37.7299 5.0401 38.0267 5.40046C38.3235 5.7589 38.5605 6.16359 38.7648 6.57984C38.8149 6.68583 38.8611 6.79182 38.9093 6.89588C38.9517 7.0038 38.9902 7.11364 39.0307 7.22349L39.0904 7.38536L39.1367 7.55302C39.1694 7.66479 39.2003 7.77463 39.2311 7.88447C39.2562 7.99817 39.2793 8.11187 39.3024 8.22364L39.339 8.3913L39.3641 8.56281C39.3795 8.67651 39.3949 8.7902 39.4123 8.90198C39.4257 9.01567 39.4296 9.12937 39.4392 9.24307C39.445 9.35677 39.4604 9.47046 39.4604 9.58031C39.4624 9.69208 39.4643 9.80385 39.4662 9.91369C39.4566 10.1353 39.4527 10.3569 39.4296 10.5766C39.4142 10.7963 39.3776 11.016 39.3487 11.2318C39.3082 11.4496 39.2754 11.6654 39.2253 11.8774C39.0423 12.7272 38.7725 13.5385 38.4738 14.2997C38.1751 15.0609 37.8455 15.7759 37.5064 16.4446C37.4775 16.4985 37.4505 16.5525 37.4216 16.6065C37.9573 16.2904 38.4873 15.9994 39.0095 15.7296C39.1829 15.4174 39.3525 15.0956 39.5182 14.7622C39.8998 13.9875 40.2602 13.1473 40.5415 12.2223C40.6167 11.993 40.6726 11.7541 40.7362 11.5132C40.7901 11.2704 40.8499 11.0256 40.8884 10.7712C40.9366 10.5188 40.9616 10.2586 40.9925 9.99463C41.0002 9.86166 41.0098 9.72869 41.0175 9.5938C41.0272 9.46083 41.0214 9.32786 41.0252 9.19296C41.0233 9.06 41.0272 8.9251 41.0214 8.78828C41.0137 8.65338 41.004 8.51656 40.9963 8.37781L40.9828 8.17161L40.9539 7.96541C40.9366 7.82666 40.9173 7.68599 40.898 7.54724C40.873 7.40849 40.8422 7.26781 40.8132 7.12713L40.7689 6.91708L40.7111 6.70703C40.6706 6.56635 40.634 6.42567 40.5897 6.285C40.5377 6.14625 40.4876 6.00557 40.4355 5.86682C40.2139 5.31182 39.9403 4.75875 39.5761 4.24421C39.2118 3.72968 38.7744 3.24599 38.2656 2.82395C37.252 1.97218 35.9165 1.41526 34.5059 1.28421C33.8006 1.22062 33.0779 1.25145 32.3726 1.39213C31.6692 1.53088 30.9832 1.76406 30.328 2.06854C30.1661 2.14755 30.0042 2.22849 29.8424 2.3075C29.6863 2.4 29.5321 2.49057 29.3741 2.58114C29.2161 2.66979 29.0715 2.77385 28.9212 2.87599C28.7728 2.97812 28.6187 3.0764 28.4799 3.1901L28.2718 3.35197C28.2544 3.36354 28.2352 3.37895 28.2121 3.39244L28.0945 3.48494C28.0155 3.54083 27.95 3.60635 27.8825 3.66416C27.8054 3.57166 27.7361 3.47916 27.6609 3.40015C27.6281 3.35968 27.5857 3.31729 27.5568 3.28453L27.3391 3.0976L27.2177 2.99354L27.0886 2.89526C26.4102 2.36145 25.6471 1.88546 24.7973 1.52895C23.9493 1.17052 23.0128 0.933485 22.0319 0.8776C21.0529 0.825568 20.0297 0.948902 19.0661 1.30349C18.1064 1.65614 17.1949 2.20536 16.4472 2.92802C15.6976 3.64489 15.0905 4.51015 14.6589 5.44671C14.2311 6.38328 13.969 7.38343 13.8534 8.38744L13.811 8.76515L13.7936 9.14093L13.7763 9.51864L13.7859 9.90599L13.7994 10.2933C13.8013 10.4244 13.8225 10.5477 13.8341 10.6749L13.8765 11.0526L13.8996 11.2415L13.9324 11.4265C14.0885 12.4208 14.3717 13.3555 14.7032 14.2612C14.8631 14.7179 15.0559 15.1534 15.2447 15.5928C15.4451 16.0245 15.6455 16.4581 15.8652 16.8762C16.3007 17.7184 16.7729 18.5355 17.2778 19.3314C17.7788 20.1292 18.3088 20.9096 18.8638 21.6708C19.968 23.2009 21.1666 24.6694 22.4269 26.1031C23.0571 26.8181 23.7046 27.5234 24.3694 28.2191C25.0381 28.9167 25.7126 29.5989 26.4353 30.283C27.0847 30.8996 27.738 31.5568 28.3701 32.21C29.0041 32.8672 29.6227 33.532 30.2259 34.2046C31.4264 35.5516 32.573 36.9218 33.6175 38.3228C34.1436 39.0204 34.6427 39.7276 35.1091 40.4406C35.5812 41.1517 36.0167 41.8724 36.4118 42.597C36.6141 42.9574 36.7914 43.3235 36.9726 43.6858C37.1383 44.05 37.3117 44.4143 37.4505 44.7785C37.7396 45.5069 37.9804 46.2354 38.1115 46.9407C38.3851 48.3108 38.2734 49.7561 37.7897 50.9355C37.543 51.5252 37.2019 52.0474 36.7876 52.483C36.3752 52.9204 35.8741 53.2442 35.3384 53.4754C34.2573 53.9225 32.9989 53.8994 31.8273 53.4696C31.2414 53.2577 30.6749 52.9493 30.1468 52.5755L30.0466 52.508L29.9484 52.4329L29.7306 52.2633C29.6651 52.2112 29.5996 52.1592 29.5417 52.1033C29.4801 52.0474 29.4184 51.9993 29.3606 51.9376L29.0079 51.5927C28.5339 51.1321 28.0926 50.6734 27.6493 50.2244C27.4547 50.4364 27.2601 50.6484 27.0654 50.8584L26.7764 51.1725L26.4815 51.4809C26.285 51.6852 26.0923 51.8933 25.8957 52.0898L25.7473 52.2305C25.6953 52.2768 25.6394 52.3211 25.5874 52.3673L25.4255 52.5099C25.3214 52.6063 25.2097 52.6853 25.0998 52.7701C24.99 52.853 24.884 52.9435 24.7684 53.0148C24.6566 53.09 24.5429 53.1671 24.4311 53.2422C24.3136 53.3078 24.1979 53.3752 24.0823 53.4407C23.614 53.6932 23.1323 53.8897 22.6447 54.0188C22.1552 54.1499 21.66 54.2 21.1763 54.1904C20.2108 54.1615 19.2781 53.857 18.5207 53.3058C18.1411 53.0322 17.8019 52.7084 17.5052 52.35C17.2084 51.9896 16.9714 51.5849 16.7671 51.1687C16.717 51.0627 16.6707 50.9567 16.6226 50.8527C16.5802 50.7447 16.5436 50.6349 16.5012 50.525L16.4414 50.3632L16.3952 50.1955C16.3624 50.0857 16.3316 49.9739 16.3007 49.8641C16.2757 49.7504 16.2526 49.6367 16.2294 49.5249L16.1928 49.3572L16.1697 49.1857C16.1524 49.072 16.1369 48.9583 16.1196 48.8466C16.1061 48.7329 16.1023 48.6192 16.0926 48.5055C16.0868 48.3918 16.0714 48.2781 16.0714 48.1663C16.0695 48.0565 16.0676 47.9447 16.0656 47.8348C16.0753 47.6132 16.0791 47.3916 16.1042 47.1719C16.1177 46.9522 16.1543 46.7325 16.1832 46.5167C16.2237 46.299 16.2564 46.0831 16.3065 45.8711C16.4896 45.0213 16.7594 44.21 17.0581 43.4488C17.3568 42.6876 17.6863 41.9727 18.0255 41.304C18.0717 41.2153 18.118 41.1286 18.1623 41.0399C17.7557 41.2808 17.3645 41.5005 16.9791 41.7048C16.8461 41.7761 16.7131 41.8435 16.5802 41.9129C16.3875 42.2559 16.1986 42.6124 16.0136 42.9863C15.632 43.761 15.2717 44.6012 14.9903 45.5262C14.9171 45.7555 14.8593 45.9945 14.7957 46.2354C14.7417 46.4782 14.682 46.7229 14.6435 46.9773C14.5953 47.2297 14.5702 47.4899 14.5394 47.7539C14.5317 47.8869 14.522 48.0198 14.5143 48.1528C14.5047 48.2877 14.5105 48.4207 14.5066 48.5536C14.5086 48.6885 14.5047 48.8234 14.5105 48.9603C14.5182 49.0952 14.5278 49.232 14.5355 49.3707L14.549 49.5769L14.5779 49.7831C14.5953 49.9219 14.6145 50.0625 14.6338 50.2013C14.6589 50.342 14.6897 50.4807 14.7186 50.6214L14.7629 50.8315L14.8207 51.0415C14.8612 51.1822 14.8998 51.3229 14.9422 51.4635C14.9942 51.6023 15.0443 51.743 15.0963 51.8817C15.3179 52.4367 15.5916 52.9898 15.9558 53.5043C16.32 54.0188 16.7575 54.5025 17.2662 54.9246C18.2799 55.7763 19.6153 56.3333 21.026 56.4643C21.7313 56.5279 22.4539 56.4971 23.1592 56.3564C23.8626 56.2177 24.5506 55.9845 25.2039 55.6819C25.3657 55.601 25.5276 55.52 25.6895 55.4391C25.8456 55.3485 25.9998 55.258 26.1578 55.1674C26.3158 55.0787 26.4603 54.9728 26.6106 54.8725C26.759 54.7704 26.9132 54.6721 27.0519 54.5584L27.2601 54.3966C27.2774 54.385 27.2967 54.3696 27.3198 54.3561L27.4374 54.2636C27.5164 54.2077 27.5819 54.1422 27.6493 54.0844C27.7264 54.1769 27.7958 54.2694 27.871 54.3484C27.9056 54.3888 27.9461 54.4312 27.975 54.464L28.1928 54.6509L28.3142 54.755L28.4433 54.8533C29.1216 55.3871 29.8848 55.8631 30.7346 56.2196C31.5825 56.578 32.5191 56.815 33.5 56.869C34.4789 56.921 35.5022 56.7996 36.4657 56.445C37.4254 56.0924 38.3369 55.5432 39.0847 54.8205C39.8343 54.1036 40.4413 53.2384 40.873 52.3018C41.3008 51.3653 41.5629 50.3651 41.6785 49.3611L41.7209 48.9834L41.7382 48.6076L41.7556 48.2299L41.746 47.8425Z" fill="#439B3B"/>
</g>
<mask id="mask1_1_2" style="mask-type:luminance" maskUnits="userSpaceOnUse" x="0" y="14" width="56" height="29">
<path d="M0 14.8778H55.5V42.7974H0V14.8778Z" fill="white"/>
</mask>
<g mask="url(#mask1_1_2)">
<path d="M41.0372 39.5969C41.0372 39.5969 41.1644 39.6701 41.413 39.8146C41.6616 39.9534 42.0335 40.1635 42.5365 40.4082C43.0376 40.6529 43.6716 40.9343 44.452 41.1983C45.2325 41.4507 46.1691 41.6993 47.2675 41.736C47.5392 41.7417 47.8186 41.7533 48.1077 41.7321C48.3968 41.7263 48.6916 41.6839 48.9961 41.6473C49.6012 41.5529 50.2333 41.3949 50.8692 41.1386C51.5032 40.8803 52.1392 40.5219 52.7269 40.0382C53.3128 39.5545 53.8466 38.9436 54.2609 38.219C54.6733 37.4964 54.972 36.66 55.0857 35.7678C55.1994 34.8775 55.1377 33.937 54.9103 33.0217C54.6829 32.1044 54.2879 31.2121 53.7676 30.3874C53.6327 30.1869 53.5016 29.9788 53.3571 29.7803C53.2858 29.6859 53.2126 29.5915 53.1413 29.497C53.1181 29.4643 53.0911 29.4219 53.0642 29.3872C53.0102 29.3178 52.9563 29.2485 52.9023 29.1791C52.8503 29.1155 52.7963 29.0538 52.7404 28.9902C52.8503 28.8996 52.962 28.8206 53.0565 28.732C53.1046 28.6877 53.1547 28.6472 53.1971 28.6029L53.2299 28.574L53.2453 28.5586L53.2935 28.5046L53.4843 28.2868C53.9757 27.6856 54.4285 27.0207 54.7966 26.2769C55.1628 25.533 55.4441 24.7102 55.579 23.8314C55.7158 22.9546 55.7023 22.0219 55.5058 21.1027C55.4653 20.8714 55.3882 20.6459 55.3246 20.4186C55.2553 20.1912 55.1608 19.9715 55.076 19.7479C54.972 19.5321 54.8756 19.3105 54.7561 19.1024C54.6328 18.8962 54.5172 18.6803 54.3727 18.4876C53.8196 17.6917 53.1085 16.9941 52.2972 16.4526C51.484 15.9111 50.5763 15.518 49.6417 15.2694L49.289 15.1788L48.9325 15.1094L48.576 15.0439L47.8591 14.9591L47.4988 14.9418L47.1384 14.9225L46.7703 14.9302C45.7798 14.9476 44.822 15.1017 43.9144 15.3484C43.0048 15.5931 42.1203 15.8976 41.2801 16.2695C39.5881 17.0038 38.0002 17.9153 36.4758 18.927C35.7108 19.4319 34.9631 19.9618 34.2289 20.5149C33.4908 21.0661 32.7681 21.6384 32.0551 22.23C30.6291 23.4132 29.2435 24.6639 27.8945 25.9859C27.511 26.3617 27.1314 26.7413 26.7576 27.1287C26.5745 27.3194 26.3933 27.5102 26.2122 27.701C26.0388 27.8802 25.8653 28.0594 25.6919 28.2367C24.9923 28.9517 24.2755 29.6493 23.5547 30.3295C22.1094 31.6901 20.6333 32.9716 19.1359 34.1529C18.3882 34.7464 17.6309 35.3091 16.8697 35.8371C16.1085 36.3652 15.3434 36.8681 14.5688 37.3133C13.796 37.7623 13.0194 38.1689 12.2428 38.5119C11.4642 38.8473 10.6876 39.117 9.92834 39.2924L9.64505 39.3579C9.5487 39.3791 9.4562 39.3868 9.3637 39.4042C9.1787 39.4292 8.98985 39.4697 8.81063 39.4755C8.45412 39.5082 8.07448 39.516 7.70834 39.4928C6.97604 39.4504 6.27459 39.302 5.63672 39.0515C5.00464 38.7952 4.44193 38.4329 3.97365 37.9897C3.515 37.5407 3.15464 37.0107 2.91953 36.4307C2.69214 35.8506 2.58037 35.2263 2.58808 34.5942C2.60157 33.964 2.73453 33.33 2.95615 32.7249C3.17969 32.1198 3.48802 31.5417 3.86188 31.006C3.90427 30.9385 3.95823 30.8749 4.00641 30.8094L4.07964 30.7111L4.20104 30.5569C4.38026 30.3353 4.58646 30.133 4.77917 29.9287C5.16459 29.5144 5.55386 29.1367 5.92771 28.759C5.47485 28.3485 5.02969 27.9573 4.61151 27.5507C4.50745 27.4505 4.40146 27.3522 4.2974 27.2539C4.19912 27.1518 4.10276 27.0535 4.01219 26.9437L3.8349 26.7471L3.75011 26.6546L3.67302 26.5582C3.24714 26.0533 2.90412 25.5118 2.63625 24.9588C2.09667 23.8507 1.90011 22.6732 2.04657 21.5999C2.18532 20.5207 2.67479 19.5764 3.29339 18.8461C3.6075 18.4799 3.96209 18.1754 4.3186 17.9056C4.50552 17.7842 4.68089 17.6493 4.87167 17.5511C4.9661 17.499 5.0586 17.447 5.14917 17.395C5.24552 17.3487 5.33802 17.3044 5.43052 17.262C6.1763 16.9151 6.90474 16.734 7.54261 16.6357C7.62162 16.6222 7.70063 16.6106 7.77771 16.5971C7.85479 16.5894 7.93188 16.5837 8.00511 16.5759C8.15542 16.5625 8.29802 16.549 8.43485 16.5355C8.71042 16.5201 8.95901 16.5201 9.18448 16.5258C9.63156 16.5413 9.97459 16.5798 10.2039 16.6087C10.4352 16.6395 10.5527 16.6588 10.5527 16.6588C10.5527 16.6588 10.439 16.6241 10.2135 16.5625C9.98808 16.5027 9.65276 16.4199 9.1999 16.3466C8.97443 16.3119 8.72005 16.2811 8.43677 16.2638C8.29417 16.258 8.14578 16.2541 7.99162 16.2503C7.91453 16.2483 7.83552 16.2464 7.75266 16.2445C7.67365 16.2483 7.59078 16.2503 7.50599 16.2541C6.83344 16.2773 6.04526 16.3755 5.19349 16.6569C5.0875 16.6935 4.97959 16.732 4.87167 16.7687C4.76568 16.813 4.65776 16.8592 4.54792 16.9055C4.32438 16.9922 4.11433 17.1175 3.88886 17.2331C3.45526 17.4894 3.01203 17.7939 2.60157 18.1793C2.19495 18.5686 1.81339 19.0272 1.49349 19.5591C1.1736 20.089 0.917295 20.6941 0.763128 21.3532C0.608961 22.0123 0.551149 22.7195 0.605107 23.4402C0.659066 24.161 0.826722 24.8952 1.09459 25.6101C1.36245 26.3231 1.72667 27.0227 2.18339 27.6721L2.26433 27.7974L2.3549 27.9168C2.41271 27.9939 2.47052 28.0691 2.52641 28.1462L2.60542 28.256L2.68828 28.3639C2.7962 28.5085 2.91375 28.6337 3.02167 28.759C2.88292 28.8727 2.74224 28.9787 2.62276 29.0943C2.55917 29.1502 2.4975 29.2041 2.44162 29.2619L2.42235 29.2793L2.41464 29.2889L2.38959 29.3159L2.28938 29.4296C2.22386 29.5067 2.15448 29.578 2.09282 29.6589C1.57636 30.2871 1.11193 31.0021 0.745784 31.8018C0.381566 32.5996 0.117555 33.488 0.0289094 34.4362C-0.0539553 35.3804 0.0404718 36.3787 0.346878 37.3403C0.659066 38.3 1.18901 39.2115 1.88662 39.9842C2.59193 40.7512 3.45719 41.3794 4.40724 41.8285C5.35922 42.2717 6.38636 42.5434 7.42506 42.659C7.94344 42.7207 8.46183 42.738 9.00334 42.7168C9.27698 42.7168 9.53521 42.6802 9.79922 42.6552C9.93026 42.6398 10.0652 42.6301 10.1923 42.6089L10.5778 42.5395C11.6068 42.3545 12.5916 42.0539 13.5416 41.6897C14.4878 41.3197 15.4032 40.8861 16.2954 40.4101C17.1877 39.9361 18.051 39.41 18.9008 38.8588C19.7526 38.3057 20.5851 37.7199 21.4003 37.1071C23.0364 35.8815 24.6223 34.5556 26.164 33.1412C26.9348 32.4339 27.6941 31.7093 28.4457 30.952C28.6326 30.7612 28.8195 30.5704 29.0084 30.3777C29.1838 30.1946 29.361 30.0096 29.5383 29.8266C29.8871 29.4681 30.2436 29.1097 30.6079 28.7551C31.8836 27.5025 33.1959 26.3058 34.5256 25.1785C35.1905 24.6119 35.8611 24.0665 36.5375 23.5424C37.212 23.0143 37.8942 22.5114 38.5821 22.0354C39.9542 21.0815 41.3533 20.2316 42.7601 19.5668C43.4615 19.2295 44.1668 18.9636 44.8625 18.7458C45.5582 18.5281 46.2423 18.397 46.8898 18.3585L47.1345 18.3412L47.387 18.3431H47.6375L47.8842 18.3624L48.1328 18.3797L48.3717 18.4125L48.6126 18.4471L48.8477 18.4973C49.4721 18.6302 50.0541 18.8518 50.5686 19.1544C51.0831 19.4589 51.5206 19.8501 51.8732 20.2952C51.9696 20.4031 52.037 20.5265 52.1199 20.6421C52.1989 20.7596 52.2586 20.8868 52.3319 21.0063C52.3839 21.1354 52.4533 21.2607 52.5015 21.3917C52.5439 21.5266 52.6036 21.6538 52.6325 21.7906C52.9389 22.8737 52.8175 24.0723 52.3608 25.165C52.1353 25.7123 51.8347 26.2364 51.4859 26.7298L51.3491 26.9109L51.3144 26.9552L51.2489 27.04C51.2045 27.0978 51.1583 27.1518 51.112 27.2038C51.0215 27.3117 50.9193 27.4139 50.821 27.516L50.5262 27.8224C50.135 28.2348 49.7419 28.6087 49.3642 28.9902C49.6474 29.2485 49.9288 29.5028 50.2082 29.7591C50.4819 30.0154 50.7517 30.2717 51.0215 30.5261C51.0908 30.5897 51.1506 30.6552 51.2122 30.7207C51.2758 30.7824 51.3336 30.8518 51.3934 30.9212C51.4628 30.9982 51.5321 31.0753 51.6015 31.1524C51.7287 31.3008 51.8443 31.4569 51.9657 31.6091C52.4321 32.2277 52.7905 32.8906 53.0198 33.569C53.2511 34.2473 53.3571 34.9391 53.3359 35.6098C53.3108 36.2804 53.147 36.9221 52.8849 37.5041C52.6229 38.0841 52.2548 38.6025 51.8251 39.038C51.3934 39.4736 50.9001 39.8243 50.3855 40.096C49.8691 40.3677 49.3353 40.5643 48.8072 40.7069C48.5413 40.7666 48.2811 40.8341 48.021 40.8649C47.7628 40.9131 47.5065 40.9324 47.2559 40.9536C46.2596 41.0306 45.352 40.9035 44.5734 40.7474C43.7949 40.5836 43.1416 40.3851 42.6194 40.2058C42.0952 40.0266 41.7021 39.8667 41.4381 39.7626C41.1741 39.6528 41.0372 39.5969 41.0372 39.5969Z" fill="#1F184D"/>
</g>
<path d="M66.6894 30.6617H73.2338V32.9742H64.1457V17.8582H66.6894V30.6617Z" fill="#1F184D"/>
<path d="M76.732 19.9934C78.2737 18.5288 80.1718 17.7966 82.4285 17.7966C84.6889 17.7966 86.591 18.5288 88.1326 19.9934C89.6743 21.4542 90.4451 23.2618 90.4451 25.4201C90.4451 27.5784 89.6743 29.3957 88.1326 30.8699C86.591 32.346 84.6889 33.0822 82.4285 33.0822C80.1718 33.0822 78.2737 32.346 76.732 30.8699C75.1903 29.3957 74.4195 27.5784 74.4195 25.4201C74.4195 23.2618 75.1903 21.4542 76.732 19.9934ZM82.4516 20.0859C80.9562 20.0859 79.6727 20.6005 78.6051 21.6276C77.5414 22.6567 77.0095 23.9208 77.0095 25.4201C77.0095 26.9155 77.5452 28.1855 78.6205 29.228C79.6939 30.2725 80.9716 30.7928 82.4516 30.7928C83.9354 30.7928 85.2035 30.2725 86.2518 29.228C87.304 28.1855 87.832 26.9155 87.832 25.4201C87.832 23.9208 87.304 22.6567 86.2518 21.6276C85.2035 20.6005 83.9354 20.0859 82.4516 20.0859Z" fill="#1F184D"/>
<path d="M103.488 20.1476H98.6934V32.9742H96.1419V20.1476H91.3704V17.8582H103.488V20.1476Z" fill="#1F184D"/>
<path d="M114.495 14.1043L111.866 16.2164H109.662L111.951 13.0251L114.495 14.1043ZM116.46 20.1476H108.212V24.233H115.597V26.5224H108.212V30.6849H116.722V32.9743H105.669V17.8582H116.46V20.1476Z" fill="#1F184D"/>
<path d="M129.415 32.9742L126.655 28.3955C126.511 28.4109 126.279 28.4186 125.961 28.4186H122.377V32.9742H119.833V17.8582H125.961C127.892 17.8582 129.392 18.3091 130.455 19.2072C131.519 20.1071 132.051 21.379 132.051 23.0228C132.051 24.2311 131.781 25.2543 131.242 26.0907C130.702 26.9232 129.927 27.536 128.921 27.9253L132.313 32.9742H129.415ZM122.377 26.1292H125.961C128.407 26.1292 129.631 25.1156 129.631 23.0844C129.631 21.1265 128.407 20.1476 125.961 20.1476H122.377V26.1292Z" fill="#1F184D"/>
<path d="M137.989 32.9742H135.445V17.8582H137.989V32.9742Z" fill="#1F184D"/>
<path d="M148.657 17.7966C149.721 17.7966 150.758 18.0028 151.771 18.4132C152.789 18.8256 153.664 19.396 154.4 20.1245L152.912 21.9822C152.361 21.3925 151.712 20.9242 150.962 20.5793C150.216 20.2362 149.463 20.0628 148.704 20.0628C147.187 20.0628 145.907 20.5793 144.865 21.6122C143.82 22.6412 143.3 23.8938 143.3 25.3738C143.3 26.8693 143.82 28.1334 144.865 29.1663C145.907 30.1954 147.187 30.708 148.704 30.708C150.27 30.708 151.673 30.1106 152.912 28.912L154.423 30.6001C153.646 31.3613 152.739 31.9645 151.702 32.4116C150.663 32.8586 149.621 33.0822 148.572 33.0822C146.352 33.0822 144.487 32.346 142.976 30.8699C141.465 29.3957 140.71 27.5707 140.71 25.397C140.71 23.2541 141.475 21.4542 143.007 19.9934C144.543 18.5288 146.426 17.7966 148.657 17.7966Z" fill="#1F184D"/>
<path d="M166.776 29.5594H159.152L157.703 32.9742H155.051L161.719 17.8582H164.332L170.938 32.9742H168.217L166.776 29.5594ZM165.804 27.2932L162.952 20.5792L160.1 27.2932H165.804Z" fill="#1F184D"/>
<path d="M73.5802 55.2554C71.6165 55.2554 69.8436 54.8314 68.2615 53.9835C66.6832 53.1356 65.4479 51.9678 64.5538 50.4762C63.6596 48.9866 63.2125 47.3119 63.2125 45.4504C63.2125 43.5965 63.6596 41.9238 64.5538 40.4323C65.4479 38.9426 66.6832 37.7729 68.2615 36.925C69.8436 36.077 71.6165 35.6531 73.5802 35.6531C75.5478 35.6531 77.3188 36.077 78.8913 36.925C80.4638 37.7729 81.699 38.9426 82.599 40.4323C83.5028 41.9238 83.9557 43.5965 83.9557 45.4504C83.9557 47.3119 83.5028 48.9866 82.599 50.4762C81.699 51.9678 80.4638 53.1356 78.8913 53.9835C77.3188 54.8314 75.5478 55.2554 73.5802 55.2554ZM73.5802 51.5168C74.6999 51.5168 75.7116 51.2605 76.6173 50.746C77.5211 50.2334 78.2303 49.5165 78.7448 48.5954C79.2574 47.6762 79.5157 46.6278 79.5157 45.4504C79.5157 44.2787 79.2574 43.2342 78.7448 42.3131C78.2303 41.3939 77.5211 40.677 76.6173 40.1625C75.7116 39.6499 74.6999 39.3916 73.5802 39.3916C72.4645 39.3916 71.4547 39.6499 70.5509 40.1625C69.6451 40.677 68.936 41.3939 68.4234 42.3131C67.9088 43.2342 67.6525 44.2787 67.6525 45.4504C67.6525 46.6278 67.9088 47.6762 68.4234 48.5954C68.936 49.5165 69.6451 50.2334 70.5509 50.746C71.4547 51.2605 72.4645 51.5168 73.5802 51.5168Z" fill="#439B3B"/>
<path d="M104.647 35.9768V54.9316H101.047L91.597 43.4231V54.9316H87.2649V35.9768H90.8878L100.315 47.4853V35.9768H104.647Z" fill="#439B3B"/>
<path d="M109.147 35.9768H113.533V51.3549H123.037V54.9316H109.147V35.9768Z" fill="#439B3B"/>
<path d="M125.505 35.9768H129.891V54.9316H125.505V35.9768Z" fill="#439B3B"/>
<path d="M151.77 35.9768V54.9316H148.17L138.72 43.4231V54.9316H134.388V35.9768H138.01L147.438 47.4853V35.9768H151.77Z" fill="#439B3B"/>
<path d="M170.947 51.4089V54.9316H156.27V35.9768H170.592V39.4995H160.625V43.6158H169.428V47.0228H160.625V51.4089H170.947Z" fill="#439B3B"/>
<path d="M68.5282 6.07742C69.9466 6.07742 71.1915 6.43008 72.2668 7.13346L71.3572 9.0143C70.8639 8.72716 70.332 8.49013 69.7616 8.30513C69.1912 8.12013 68.7132 8.02763 68.3278 8.02763C67.6341 8.02763 67.2872 8.25695 67.2872 8.71367C67.2872 9.01237 67.4568 9.25133 67.796 9.43055C68.139 9.61169 68.5591 9.76779 69.0524 9.90076C69.5457 10.0299 70.0352 10.186 70.5247 10.371C71.018 10.556 71.4343 10.8566 71.7735 11.2728C72.1165 11.6891 72.2899 12.2133 72.2899 12.8453C72.2899 13.7549 71.9315 14.4679 71.2185 14.9805C70.5093 15.4893 69.6036 15.7437 68.5051 15.7437C67.7189 15.7437 66.9403 15.6088 66.1695 15.3351C65.4025 15.0634 64.7377 14.6934 64.173 14.2251L65.1057 12.3674C65.5837 12.7837 66.1464 13.1267 66.7939 13.3926C67.4452 13.6605 68.0233 13.7935 68.5282 13.7935C68.9175 13.7935 69.222 13.7241 69.4378 13.5853C69.6537 13.4427 69.7616 13.2365 69.7616 12.9687C69.7616 12.7066 69.6344 12.4888 69.3839 12.3135C69.1372 12.1342 68.8289 12.0032 68.4589 11.9203C68.0927 11.8336 67.6919 11.718 67.2564 11.5735C66.8247 11.4309 66.4239 11.2728 66.0539 11.1033C65.6839 10.9298 65.3717 10.6542 65.1212 10.2785C64.8745 9.90461 64.7512 9.45367 64.7512 8.92951C64.7512 8.06617 65.0942 7.37628 65.7841 6.85596C66.4778 6.33758 67.3913 6.07742 68.5282 6.07742Z" fill="#1F184D"/>
<path d="M82.1289 6.18547V11.6815C82.1289 12.936 81.7396 13.9304 80.9649 14.6646C80.1883 15.4008 79.1381 15.7669 77.8122 15.7669C76.4748 15.7669 75.4111 15.4008 74.621 14.6646C73.8347 13.9304 73.4416 12.936 73.4416 11.6815V6.18547H75.8466V11.6815C75.8466 12.3136 76.0277 12.8185 76.3939 13.1923C76.7639 13.5623 77.2418 13.7473 77.8276 13.7473C78.4019 13.7473 78.8625 13.5623 79.2074 13.1923C79.5562 12.8223 79.7316 12.3194 79.7316 11.6815V6.18547H82.1289Z" fill="#1F184D"/>
<path d="M90.1494 13.9092H86.0101L85.324 15.659H82.8419L86.9351 6.18547H89.4094L93.4024 15.659H90.8278L90.1494 13.9092ZM89.448 12.0823L88.099 8.58276L86.7115 12.0823H89.448Z" fill="#1F184D"/>
</svg>
