<svg width="170" height="57" viewBox="0 0 170 57" fill="none" xmlns="http://www.w3.org/2000/svg">
<mask id="mask0_1_2" style="mask-type:luminance" maskUnits="userSpaceOnUse" x="13" y="0" width="29" height="57">
<path d="M13.6354 0.867943H41.5671V56.8806H13.6354V0.867943Z" fill="white"/>
</mask>
<g mask="url(#mask0_1_2)">
<path d="M41.5147 47.8425L41.5013 47.4552C41.4994 47.3242 41.4783 47.2008 41.4668 47.0756L41.4246 46.6959L41.4016 46.5071L41.3691 46.3221C41.2138 45.3277 40.9321 44.3931 40.6025 43.4873C40.4434 43.0306 40.2518 42.597 40.064 42.1557C39.8647 41.7241 39.6654 41.2905 39.4469 40.8742C39.0157 40.0302 38.5462 39.2131 38.0441 38.4172C37.5439 37.6194 37.0169 36.8389 36.465 36.0777C35.3669 34.5457 34.1749 33.0792 32.9215 31.6454C32.2949 30.9305 31.651 30.2252 30.9898 29.5295C30.3248 28.8319 29.6541 28.1497 28.9354 27.4656C28.2896 26.847 27.6399 26.1918 27.0113 25.5385C26.3808 24.8814 25.7657 24.2165 25.1658 23.544C23.9719 22.1969 22.8316 20.8268 21.793 19.4258C21.2698 18.7282 20.7734 18.0209 20.3097 17.3079C19.8401 16.5968 19.407 15.8761 19.0142 15.1515C18.8129 14.7911 18.6366 14.425 18.4565 14.0627C18.2917 13.6985 18.1192 13.3343 17.9812 12.97C17.6938 12.2416 17.4542 11.5132 17.3239 10.8079C17.0518 9.4377 17.1629 7.99239 17.6439 6.81302C17.8892 6.22333 18.2284 5.70109 18.6405 5.26557C19.0506 4.82812 19.5488 4.50437 20.0816 4.27312C21.1567 3.82604 22.4081 3.84916 23.5733 4.2789C24.1559 4.49088 24.7193 4.79921 25.2444 5.17307L25.3441 5.24052L25.4418 5.31567L25.6583 5.48526C25.7235 5.53729 25.7887 5.58932 25.8462 5.6452C25.9075 5.70109 25.9688 5.74927 26.0263 5.80901L26.377 6.15588C26.8484 6.61645 27.2873 7.0751 27.7281 7.52411C27.9216 7.31213 28.1152 7.10015 28.3087 6.8901L28.5962 6.57599L28.8894 6.26765C29.0849 6.06338 29.2765 5.85526 29.472 5.65869L29.6196 5.51802C29.6713 5.47177 29.7269 5.42744 29.7786 5.38119L29.9396 5.23859C30.0431 5.14223 30.1542 5.06322 30.2635 4.97843C30.3727 4.89557 30.4781 4.805 30.5931 4.73369C30.7043 4.65854 30.8173 4.58145 30.9285 4.5063C31.0454 4.44078 31.1604 4.37333 31.2753 4.30781C31.741 4.05536 32.2201 3.8588 32.705 3.72968C33.1918 3.59864 33.6843 3.54661 34.1653 3.55817C35.1254 3.58708 36.0529 3.89156 36.8061 4.4427C37.1836 4.71635 37.5209 5.0401 37.816 5.40046C38.1112 5.7589 38.3469 6.16359 38.55 6.57984C38.5999 6.68583 38.6459 6.79182 38.6938 6.89588C38.7359 7.0038 38.7742 7.11364 38.8145 7.22349L38.8739 7.38536L38.9199 7.55302C38.9525 7.66479 38.9831 7.77463 39.0138 7.88447C39.0387 7.99817 39.0617 8.11187 39.0847 8.22364L39.1211 8.3913L39.146 8.56281C39.1614 8.67651 39.1767 8.7902 39.1939 8.90198C39.2074 9.01567 39.2112 9.12937 39.2208 9.24307C39.2265 9.35677 39.2419 9.47046 39.2419 9.58031C39.2438 9.69208 39.2457 9.80385 39.2476 9.91369C39.238 10.1353 39.2342 10.3569 39.2112 10.5766C39.1959 10.7963 39.1594 11.016 39.1307 11.2318C39.0905 11.4496 39.0579 11.6654 39.0081 11.8774C38.826 12.7272 38.5577 13.5385 38.2607 14.2997C37.9636 15.0609 37.6359 15.7759 37.2986 16.4446C37.2699 16.4985 37.243 16.5525 37.2143 16.6065C37.7471 16.2904 38.2741 15.9994 38.7934 15.7296C38.9659 15.4174 39.1345 15.0956 39.2993 14.7622C39.6788 13.9875 40.0372 13.1473 40.317 12.2223C40.3917 11.993 40.4473 11.7541 40.5105 11.5132C40.5642 11.2704 40.6236 11.0256 40.6619 10.7712C40.7098 10.5188 40.7347 10.2586 40.7654 9.99463C40.7731 9.86166 40.7826 9.72869 40.7903 9.5938C40.7999 9.46083 40.7941 9.32786 40.798 9.19296C40.7961 9.06 40.7999 8.9251 40.7941 8.78828C40.7865 8.65338 40.7769 8.51656 40.7692 8.37781L40.7558 8.17161L40.7271 7.96541C40.7098 7.82666 40.6907 7.68599 40.6715 7.54724C40.6466 7.40849 40.6159 7.26781 40.5872 7.12713L40.5431 6.91708L40.4856 6.70703C40.4454 6.56635 40.4089 6.42567 40.3649 6.285C40.3131 6.14625 40.2633 6.00557 40.2116 5.86682C39.9912 5.31182 39.719 4.75875 39.3568 4.24421C38.9946 3.72968 38.5596 3.24599 38.0537 2.82395C37.0456 1.97218 35.7176 1.41526 34.3148 1.28421C33.6134 1.22062 32.8947 1.25145 32.1933 1.39213C31.4938 1.53088 30.8116 1.76406 30.16 2.06854C29.999 2.14755 29.838 2.22849 29.6771 2.3075C29.5218 2.4 29.3685 2.49057 29.2114 2.58114C29.0542 2.66979 28.9105 2.77385 28.761 2.87599C28.6135 2.97812 28.4601 3.0764 28.3222 3.1901L28.1152 3.35197C28.0979 3.36354 28.0788 3.37895 28.0558 3.39244L27.9389 3.48494C27.8603 3.54083 27.7951 3.60635 27.7281 3.66416C27.6514 3.57166 27.5824 3.47916 27.5077 3.40015C27.4751 3.35968 27.4329 3.31729 27.4042 3.28453L27.1876 3.0976L27.0669 2.99354L26.9385 2.89526C26.2639 2.36145 25.505 1.88546 24.6599 1.52895C23.8167 1.17052 22.8853 0.933485 21.9099 0.8776C20.9363 0.825568 19.9187 0.948902 18.9605 1.30349C18.0061 1.65614 17.0997 2.20536 16.3561 2.92802C15.6106 3.64489 15.0069 4.51015 14.5777 5.44671C14.1522 6.38328 13.8916 7.38343 13.7766 8.38744L13.7345 8.76515L13.7172 9.14093L13.7 9.51864L13.7095 9.90599L13.723 10.2933C13.7249 10.4244 13.746 10.5477 13.7575 10.6749L13.7996 11.0526L13.8226 11.2415L13.8552 11.4265C14.0104 12.4208 14.2921 13.3555 14.6218 14.2612C14.7808 14.7179 14.9725 15.1534 15.1603 15.5928C15.3596 16.0245 15.5589 16.4581 15.7773 16.8762C16.2105 17.7184 16.68 18.5355 17.1821 19.3314C17.6803 20.1292 18.2074 20.9096 18.7593 21.6708C19.8574 23.2009 21.0494 24.6694 22.3027 26.1031C22.9294 26.8181 23.5733 27.5234 24.2345 28.2191C24.8995 28.9167 25.5702 29.5989 26.2888 30.283C26.9347 30.8996 27.5843 31.5568 28.2129 32.21C28.8434 32.8672 29.4586 33.532 30.0584 34.2046C31.2523 35.5516 32.3926 36.9218 33.4313 38.3228C33.9545 39.0204 34.4508 39.7276 34.9146 40.4406C35.3841 41.1517 35.8172 41.8724 36.2101 42.597C36.4113 42.9574 36.5876 43.3235 36.7678 43.6858C36.9326 44.05 37.1051 44.4143 37.243 44.7785C37.5305 45.5069 37.7701 46.2354 37.9004 46.9407C38.1725 48.3108 38.0613 49.7561 37.5803 50.9355C37.335 51.5252 36.9958 52.0474 36.5838 52.483C36.1737 52.9204 35.6754 53.2442 35.1427 53.4754C34.0676 53.9225 32.8161 53.8994 31.651 53.4696C31.0684 53.2577 30.5049 52.9493 29.9799 52.5755L29.8802 52.508L29.7825 52.4329L29.5659 52.2633C29.5007 52.2112 29.4356 52.1592 29.3781 52.1033C29.3168 52.0474 29.2554 51.9993 29.198 51.9376L28.8473 51.5927C28.3758 51.1321 27.937 50.6734 27.4962 50.2244C27.3026 50.4364 27.1091 50.6484 26.9155 50.8584L26.6281 51.1725L26.3348 51.4809C26.1394 51.6852 25.9477 51.8933 25.7523 52.0898L25.6047 52.2305C25.5529 52.2768 25.4974 52.3211 25.4456 52.3673L25.2846 52.5099C25.1812 52.6063 25.07 52.6853 24.9608 52.7701C24.8515 52.853 24.7461 52.9435 24.6312 53.0148C24.52 53.09 24.4069 53.1671 24.2958 53.2422C24.1789 53.3078 24.0639 53.3752 23.9489 53.4407C23.4832 53.6932 23.0041 53.8897 22.5193 54.0188C22.0325 54.1499 21.54 54.2 21.059 54.1904C20.0988 54.1615 19.1713 53.857 18.4182 53.3058C18.0406 53.0322 17.7033 52.7084 17.4082 52.35C17.1131 51.9896 16.8774 51.5849 16.6742 51.1687C16.6244 51.0627 16.5784 50.9567 16.5305 50.8527C16.4883 50.7447 16.4519 50.6349 16.4098 50.525L16.3504 50.3632L16.3044 50.1955C16.2718 50.0857 16.2411 49.9739 16.2105 49.8641C16.1855 49.7504 16.1625 49.6367 16.1395 49.5249L16.1031 49.3572L16.0801 49.1857C16.0629 49.072 16.0476 48.9583 16.0303 48.8466C16.0169 48.7329 16.0131 48.6192 16.0035 48.5055C15.9977 48.3918 15.9824 48.2781 15.9824 48.1663C15.9805 48.0565 15.9786 47.9447 15.9767 47.8348C15.9862 47.6132 15.9901 47.3916 16.015 47.1719C16.0284 46.9522 16.0648 46.7325 16.0936 46.5167C16.1338 46.299 16.1664 46.0831 16.2162 45.8711C16.3983 45.0213 16.6666 44.21 16.9636 43.4488C17.2606 42.6876 17.5884 41.9727 17.9256 41.304C17.9716 41.2153 18.0176 41.1286 18.0617 41.0399C17.6573 41.2808 17.2683 41.5005 16.885 41.7048C16.7528 41.7761 16.6206 41.8435 16.4883 41.9129C16.2967 42.2559 16.1089 42.6124 15.9249 42.9863C15.5455 43.761 15.1871 44.6012 14.9073 45.5262C14.8345 45.7555 14.777 45.9945 14.7137 46.2354C14.6601 46.4782 14.6007 46.7229 14.5623 46.9773C14.5144 47.2297 14.4895 47.4899 14.4589 47.7539C14.4512 47.8869 14.4416 48.0198 14.4339 48.1528C14.4244 48.2877 14.4301 48.4207 14.4263 48.5536C14.4282 48.6885 14.4244 48.8234 14.4301 48.9603C14.4378 49.0952 14.4474 49.232 14.455 49.3707L14.4684 49.5769L14.4972 49.7831C14.5144 49.9219 14.5336 50.0625 14.5528 50.2013C14.5777 50.342 14.6083 50.4807 14.6371 50.6214L14.6812 50.8315L14.7387 51.0415C14.7789 51.1822 14.8172 51.3229 14.8594 51.4635C14.9111 51.6023 14.961 51.743 15.0127 51.8817C15.2331 52.4367 15.5052 52.9898 15.8674 53.5043C16.2296 54.0188 16.6646 54.5025 17.1706 54.9246C18.1786 55.7763 19.5067 56.3333 20.9095 56.4643C21.6109 56.5279 22.3295 56.4971 23.031 56.3564C23.7304 56.2177 24.4146 55.9845 25.0643 55.6819C25.2252 55.601 25.3862 55.52 25.5472 55.4391C25.7024 55.3485 25.8557 55.258 26.0129 55.1674C26.17 55.0787 26.3138 54.9728 26.4632 54.8725C26.6108 54.7704 26.7641 54.6721 26.9021 54.5584L27.1091 54.3966C27.1263 54.385 27.1455 54.3696 27.1685 54.3561L27.2854 54.2636C27.364 54.2077 27.4291 54.1422 27.4962 54.0844C27.5728 54.1769 27.6418 54.2694 27.7166 54.3484C27.7511 54.3888 27.7913 54.4312 27.8201 54.464L28.0366 54.6509L28.1573 54.755L28.2857 54.8533C28.9603 55.3871 29.7192 55.8631 30.5644 56.2196C31.4076 56.578 32.3389 56.815 33.3144 56.869C34.2879 56.921 35.3055 56.7996 36.2638 56.445C37.2181 56.0924 38.1246 55.5432 38.8682 54.8205C39.6136 54.1036 40.2173 53.2384 40.6466 52.3018C41.072 51.3653 41.3327 50.3651 41.4476 49.3611L41.4898 48.9834L41.507 48.6076L41.5243 48.2299L41.5147 47.8425Z" fill="#439B3B"/>
</g>
<mask id="mask1_1_2" style="mask-type:luminance" maskUnits="userSpaceOnUse" x="0" y="14" width="56" height="29">
<path d="M0 14.8778H55.1926V42.7974H0V14.8778Z" fill="white"/>
</mask>
<g mask="url(#mask1_1_2)">
<path d="M40.8099 39.5969C40.8099 39.5969 40.9364 39.6701 41.1836 39.8146C41.4308 39.9534 41.8007 40.1635 42.3009 40.4082C42.7992 40.6529 43.4297 40.9343 44.2058 41.1983C44.9819 41.4507 45.9133 41.6993 47.0057 41.736C47.2759 41.7417 47.5538 41.7533 47.8412 41.7321C48.1287 41.7263 48.4219 41.6839 48.7247 41.6473C49.3264 41.5529 49.955 41.3949 50.5874 41.1386C51.2179 40.8803 51.8504 40.5219 52.4349 40.0382C53.0174 39.5545 53.5483 38.9436 53.9603 38.219C54.3704 37.4964 54.6675 36.66 54.7805 35.7678C54.8936 34.8775 54.8323 33.937 54.6062 33.0217C54.38 32.1044 53.9872 31.2121 53.4697 30.3874C53.3356 30.1869 53.2053 29.9788 53.0615 29.7803C52.9906 29.6859 52.9178 29.5915 52.8469 29.497C52.8239 29.4643 52.7971 29.4219 52.7702 29.3872C52.7166 29.3178 52.6629 29.2485 52.6093 29.1791C52.5575 29.1155 52.5039 29.0538 52.4483 28.9902C52.5575 28.8996 52.6687 28.8206 52.7626 28.732C52.8105 28.6877 52.8603 28.6472 52.9025 28.6029L52.935 28.574L52.9504 28.5586L52.9983 28.5046L53.188 28.2868C53.6767 27.6856 54.127 27.0207 54.4931 26.2769C54.8572 25.533 55.137 24.7102 55.2711 23.8314C55.4072 22.9546 55.3938 22.0219 55.1983 21.1027C55.1581 20.8714 55.0814 20.6459 55.0182 20.4186C54.9492 20.1912 54.8553 19.9715 54.771 19.7479C54.6675 19.5321 54.5717 19.3105 54.4528 19.1024C54.3302 18.8962 54.2152 18.6803 54.0715 18.4876C53.5215 17.6917 52.8143 16.9941 52.0075 16.4526C51.1988 15.9111 50.2961 15.518 49.3667 15.2694L49.016 15.1788L48.6615 15.1094L48.3069 15.0439L47.594 14.9591L47.2356 14.9418L46.8773 14.9225L46.5112 14.9302C45.5262 14.9476 44.5738 15.1017 43.6711 15.3484C42.7666 15.5931 41.8869 15.8976 41.0514 16.2695C39.3688 17.0038 37.7897 17.9153 36.2738 18.927C35.513 19.4319 34.7694 19.9618 34.0393 20.5149C33.3053 21.0661 32.5866 21.6384 31.8775 22.23C30.4594 23.4132 29.0815 24.6639 27.74 25.9859C27.3587 26.3617 26.9811 26.7413 26.6093 27.1287C26.4273 27.3194 26.2471 27.5102 26.067 27.701C25.8945 27.8802 25.722 28.0594 25.5496 28.2367C24.8539 28.9517 24.141 29.6493 23.4243 30.3295C21.987 31.6901 20.519 32.9716 19.0299 34.1529C18.2864 34.7464 17.5332 35.3091 16.7762 35.8371C16.0193 36.3652 15.2584 36.8681 14.4881 37.3133C13.7196 37.7623 12.9473 38.1689 12.1749 38.5119C11.4007 38.8473 10.6284 39.117 9.87334 39.2924L9.59163 39.3579C9.49581 39.3791 9.40382 39.3868 9.31183 39.4042C9.12786 39.4292 8.94005 39.4697 8.76182 39.4755C8.40729 39.5082 8.02976 39.516 7.66564 39.4928C6.9374 39.4504 6.23983 39.302 5.6055 39.0515C4.97692 38.7952 4.41733 38.4329 3.95164 37.9897C3.49553 37.5407 3.13717 37.0107 2.90336 36.4307C2.67723 35.8506 2.56608 35.2263 2.57374 34.5942C2.58716 33.964 2.71939 33.33 2.93978 32.7249C3.16208 32.1198 3.4687 31.5417 3.84049 31.006C3.88265 30.9385 3.93631 30.8749 3.98422 30.8094L4.05704 30.7111L4.17778 30.5569C4.356 30.3353 4.56106 30.133 4.7527 29.9287C5.13598 29.5144 5.52309 29.1367 5.89488 28.759C5.44452 28.3485 5.00183 27.9573 4.58597 27.5507C4.48248 27.4505 4.37708 27.3522 4.2736 27.2539C4.17586 27.1518 4.08004 27.0535 3.98997 26.9437L3.81366 26.7471L3.72934 26.6546L3.65268 26.5582C3.22915 26.0533 2.88803 25.5118 2.62165 24.9588C2.08506 23.8507 1.88958 22.6732 2.03523 21.5999C2.17321 20.5207 2.65998 19.5764 3.27515 18.8461C3.58752 18.4799 3.94014 18.1754 4.29468 17.9056C4.48057 17.7842 4.65496 17.6493 4.84469 17.5511C4.93859 17.499 5.03058 17.447 5.12065 17.395C5.21647 17.3487 5.30846 17.3044 5.40044 17.262C6.14209 16.9151 6.8665 16.734 7.50083 16.6357C7.5794 16.6222 7.65797 16.6106 7.73463 16.5971C7.81129 16.5894 7.88794 16.5837 7.96077 16.5759C8.11025 16.5625 8.25206 16.549 8.38812 16.5355C8.66217 16.5201 8.90939 16.5201 9.13361 16.5258C9.57821 16.5413 9.91933 16.5798 10.1474 16.6087C10.3774 16.6395 10.4943 16.6588 10.4943 16.6588C10.4943 16.6588 10.3812 16.6241 10.157 16.5625C9.93275 16.5027 9.5993 16.4199 9.14894 16.3466C8.92472 16.3119 8.67175 16.2811 8.39004 16.2638C8.24823 16.258 8.10066 16.2541 7.94735 16.2503C7.87069 16.2483 7.79212 16.2464 7.70972 16.2445C7.63114 16.2483 7.54874 16.2503 7.46442 16.2541C6.79559 16.2773 6.01178 16.3755 5.16473 16.6569C5.05932 16.6935 4.952 16.732 4.84469 16.7687C4.73928 16.813 4.63196 16.8592 4.52273 16.9055C4.30043 16.9922 4.09154 17.1175 3.86732 17.2331C3.43613 17.4894 2.99535 17.7939 2.58716 18.1793C2.18279 18.5686 1.80334 19.0272 1.48522 19.5591C1.1671 20.089 0.912215 20.6941 0.758903 21.3532C0.60559 22.0123 0.548098 22.7195 0.601757 23.4402C0.655416 24.161 0.822144 24.8952 1.08852 25.6101C1.35491 26.3231 1.71711 27.0227 2.1713 27.6721L2.25178 27.7974L2.34186 27.9168C2.39935 27.9939 2.45684 28.0691 2.51242 28.1462L2.59099 28.256L2.67339 28.3639C2.78071 28.5085 2.89761 28.6337 3.00493 28.759C2.86695 28.8727 2.72705 28.9787 2.60824 29.0943C2.54499 29.1502 2.48367 29.2041 2.42809 29.2619L2.40893 29.2793L2.40126 29.2889L2.37635 29.3159L2.2767 29.4296C2.21154 29.5067 2.14255 29.578 2.08122 29.6589C1.56763 30.2871 1.10577 31.0021 0.741655 31.8018C0.379454 32.5996 0.116905 33.488 0.0287509 34.4362C-0.0536548 35.3804 0.0402492 36.3787 0.344958 37.3403C0.655417 38.3 1.18243 39.2115 1.87617 39.9842C2.57757 40.7512 3.43804 41.3794 4.38283 41.8285C5.32954 42.2717 6.35098 42.5434 7.38393 42.659C7.89944 42.7207 8.41495 42.738 8.95347 42.7168C9.2256 42.7168 9.48239 42.6802 9.74494 42.6552C9.87526 42.6398 10.0094 42.6301 10.1359 42.6089L10.5192 42.5395C11.5425 42.3545 12.5218 42.0539 13.4666 41.6897C14.4076 41.3197 15.3179 40.8861 16.2052 40.4101C17.0925 39.9361 17.951 39.41 18.7961 38.8588C19.6432 38.3057 20.4711 37.7199 21.2817 37.1071C22.9088 35.8815 24.486 34.5556 26.0191 33.1412C26.7856 32.4339 27.5407 31.7093 28.2881 30.952C28.474 30.7612 28.6599 30.5704 28.8477 30.3777C29.0221 30.1946 29.1984 30.0096 29.3747 29.8266C29.7216 29.4681 30.0761 29.1097 30.4383 28.7551C31.707 27.5025 33.0121 26.3058 34.3344 25.1785C34.9955 24.6119 35.6625 24.0665 36.3351 23.5424C37.0059 23.0143 37.6843 22.5114 38.3684 22.0354C39.7329 21.0815 41.1242 20.2316 42.5232 19.5668C43.2208 19.2295 43.9222 18.9636 44.614 18.7458C45.3058 18.5281 45.9861 18.397 46.6301 18.3585L46.8734 18.3412L47.1245 18.3431H47.3736L47.6189 18.3624L47.8661 18.3797L48.1038 18.4125L48.3433 18.4471L48.5771 18.4973C49.198 18.6302 49.7768 18.8518 50.2885 19.1544C50.8002 19.4589 51.2352 19.8501 51.5859 20.2952C51.6817 20.4031 51.7488 20.5265 51.8312 20.6421C51.9098 20.7596 51.9692 20.8868 52.042 21.0063C52.0937 21.1354 52.1627 21.2607 52.2106 21.3917C52.2528 21.5266 52.3122 21.6538 52.341 21.7906C52.6457 22.8737 52.5249 24.0723 52.0707 25.165C51.8465 25.7123 51.5476 26.2364 51.2007 26.7298L51.0646 26.9109L51.0301 26.9552L50.965 27.04C50.9209 27.0978 50.8749 27.1518 50.8289 27.2038C50.7388 27.3117 50.6373 27.4139 50.5395 27.516L50.2463 27.8224C49.8573 28.2348 49.4663 28.6087 49.0907 28.9902C49.3724 29.2485 49.6522 29.5028 49.9301 29.7591C50.2022 30.0154 50.4705 30.2717 50.7388 30.5261C50.8078 30.5897 50.8672 30.6552 50.9286 30.7207C50.9918 30.7824 51.0493 30.8518 51.1087 30.9212C51.1777 30.9982 51.2467 31.0753 51.3157 31.1524C51.4422 31.3008 51.5571 31.4569 51.6779 31.6091C52.1416 32.2277 52.4981 32.8906 52.7262 33.569C52.9561 34.2473 53.0615 34.9391 53.0404 35.6098C53.0155 36.2804 52.8526 36.9221 52.592 37.5041C52.3314 38.0841 51.9653 38.6025 51.538 39.038C51.1087 39.4736 50.6181 39.8243 50.1064 40.096C49.5928 40.3677 49.062 40.5643 48.5369 40.7069C48.2724 40.7666 48.0137 40.8341 47.755 40.8649C47.4982 40.9131 47.2433 40.9324 46.9942 40.9536C46.0034 41.0306 45.1008 40.9035 44.3265 40.7474C43.5523 40.5836 42.9026 40.3851 42.3833 40.2058C41.862 40.0266 41.4711 39.8667 41.2085 39.7626C40.946 39.6528 40.8099 39.5969 40.8099 39.5969Z" fill="#1F184D"/>
</g>
<path d="M66.32 30.6617H72.8281V32.9742H63.7904V17.8582H66.32V30.6617Z" fill="#1F184D"/>
<path d="M76.307 19.9934C77.8401 18.5288 79.7277 17.7966 81.9719 17.7966C84.2198 17.7966 86.1113 18.5288 87.6444 19.9934C89.1776 21.4542 89.9441 23.2618 89.9441 25.4201C89.9441 27.5784 89.1776 29.3957 87.6444 30.8699C86.1113 32.346 84.2198 33.0822 81.9719 33.0822C79.7277 33.0822 77.8401 32.346 76.307 30.8699C74.7738 29.3957 74.0073 27.5784 74.0073 25.4201C74.0073 23.2618 74.7738 21.4542 76.307 19.9934ZM81.9949 20.0859C80.5077 20.0859 79.2314 20.6005 78.1697 21.6276C77.1119 22.6567 76.5829 23.9208 76.5829 25.4201C76.5829 26.9155 77.1157 28.1855 78.185 29.228C79.2525 30.2725 80.5231 30.7928 81.9949 30.7928C83.4705 30.7928 84.7315 30.2725 85.774 29.228C86.8204 28.1855 87.3455 26.9155 87.3455 25.4201C87.3455 23.9208 86.8204 22.6567 85.774 21.6276C84.7315 20.6005 83.4705 20.0859 81.9949 20.0859Z" fill="#1F184D"/>
<path d="M102.915 20.1476H98.1467V32.9742H95.6093V20.1476H90.8643V17.8582H102.915V20.1476Z" fill="#1F184D"/>
<path d="M113.86 14.1043L111.246 16.2164H109.054L111.331 13.0251L113.86 14.1043ZM115.815 20.1476H107.613V24.233H114.957V26.5224H107.613V30.6849H116.076V32.9743H105.083V17.8582H115.815V20.1476Z" fill="#1F184D"/>
<path d="M128.698 32.9742L125.954 28.3955C125.81 28.4109 125.58 28.4186 125.264 28.4186H121.699V32.9742H119.17V17.8582H125.264C127.184 17.8582 128.675 18.3091 129.733 19.2072C130.791 20.1071 131.32 21.379 131.32 23.0228C131.32 24.2311 131.051 25.2543 130.515 26.0907C129.978 26.9232 129.208 27.536 128.207 27.9253L131.58 32.9742H128.698ZM121.699 26.1292H125.264C127.696 26.1292 128.913 25.1156 128.913 23.0844C128.913 21.1265 127.696 20.1476 125.264 20.1476H121.699V26.1292Z" fill="#1F184D"/>
<path d="M137.224 32.9742H134.695V17.8582H137.224V32.9742Z" fill="#1F184D"/>
<path d="M147.834 17.7966C148.892 17.7966 149.923 18.0028 150.931 18.4132C151.943 18.8256 152.813 19.396 153.545 20.1245L152.065 21.9822C151.517 21.3925 150.871 20.9242 150.126 20.5793C149.384 20.2362 148.635 20.0628 147.88 20.0628C146.372 20.0628 145.099 20.5793 144.062 21.6122C143.024 22.6412 142.506 23.8938 142.506 25.3738C142.506 26.8693 143.024 28.1334 144.062 29.1663C145.099 30.1954 146.372 30.708 147.88 30.708C149.438 30.708 150.833 30.1106 152.065 28.912L153.568 30.6001C152.795 31.3613 151.893 31.9645 150.862 32.4116C149.829 32.8586 148.792 33.0822 147.749 33.0822C145.542 33.0822 143.687 32.346 142.184 30.8699C140.682 29.3957 139.931 27.5707 139.931 25.397C139.931 23.2541 140.691 21.4542 142.215 19.9934C143.742 18.5288 145.615 17.7966 147.834 17.7966Z" fill="#1F184D"/>
<path d="M165.852 29.5594H158.27L156.829 32.9742H154.192L160.823 17.8582H163.422L169.991 32.9742H167.285L165.852 29.5594ZM164.886 27.2932L162.05 20.5792L159.213 27.2932H164.886Z" fill="#1F184D"/>
<path d="M73.1727 55.2554C71.2198 55.2554 69.4567 54.8314 67.8834 53.9835C66.3138 53.1356 65.0854 51.9678 64.1962 50.4762C63.307 48.9866 62.8624 47.3119 62.8624 45.4504C62.8624 43.5965 63.307 41.9238 64.1962 40.4323C65.0854 38.9426 66.3138 37.7729 67.8834 36.925C69.4567 36.077 71.2198 35.6531 73.1727 35.6531C75.1293 35.6531 76.8905 36.077 78.4543 36.925C80.0181 37.7729 81.2465 38.9426 82.1414 40.4323C83.0402 41.9238 83.4906 43.5965 83.4906 45.4504C83.4906 47.3119 83.0402 48.9866 82.1414 50.4762C81.2465 51.9678 80.0181 53.1356 78.4543 53.9835C76.8905 54.8314 75.1293 55.2554 73.1727 55.2554ZM73.1727 51.5168C74.2861 51.5168 75.2922 51.2605 76.1929 50.746C77.0917 50.2334 77.797 49.5165 78.3086 48.5954C78.8184 47.6762 79.0752 46.6278 79.0752 45.4504C79.0752 44.2787 78.8184 43.2342 78.3086 42.3131C77.797 41.3939 77.0917 40.677 76.1929 40.1625C75.2922 39.6499 74.2861 39.3916 73.1727 39.3916C72.0631 39.3916 71.0589 39.6499 70.1601 40.1625C69.2593 40.677 68.5541 41.3939 68.0443 42.3131C67.5327 43.2342 67.2778 44.2787 67.2778 45.4504C67.2778 46.6278 67.5327 47.6762 68.0443 48.5954C68.5541 49.5165 69.2593 50.2334 70.1601 50.746C71.0589 51.2605 72.0631 51.5168 73.1727 51.5168Z" fill="#439B3B"/>
<path d="M104.067 35.9768V54.9316H100.488L91.0896 43.4231V54.9316H86.7815V35.9768H90.3843L99.7594 47.4853V35.9768H104.067Z" fill="#439B3B"/>
<path d="M108.542 35.9768H112.904V51.3549H122.356V54.9316H108.542V35.9768Z" fill="#439B3B"/>
<path d="M124.81 35.9768H129.172V54.9316H124.81V35.9768Z" fill="#439B3B"/>
<path d="M150.929 35.9768V54.9316H147.349L137.951 43.4231V54.9316H133.643V35.9768H137.246L146.621 47.4853V35.9768H150.929Z" fill="#439B3B"/>
<path d="M170 51.4089V54.9316H155.405V35.9768H169.647V39.4995H159.736V43.6158H168.49V47.0228H159.736V51.4089H170Z" fill="#439B3B"/>
<path d="M68.1486 6.07742C69.5591 6.07742 70.7971 6.43008 71.8665 7.13346L70.9619 9.0143C70.4713 8.72716 69.9424 8.49013 69.3751 8.30513C68.8079 8.12013 68.3326 8.02763 67.9493 8.02763C67.2594 8.02763 66.9145 8.25695 66.9145 8.71367C66.9145 9.01237 67.0831 9.25133 67.4204 9.43055C67.7615 9.61169 68.1793 9.76779 68.6699 9.90076C69.1605 10.0299 69.6473 10.186 70.134 10.371C70.6246 10.556 71.0386 10.8566 71.3759 11.2728C71.717 11.6891 71.8895 12.2133 71.8895 12.8453C71.8895 13.7549 71.533 14.4679 70.8239 14.9805C70.1187 15.4893 69.218 15.7437 68.1256 15.7437C67.3438 15.7437 66.5695 15.6088 65.803 15.3351C65.0402 15.0634 64.3791 14.6934 63.8176 14.2251L64.7451 12.3674C65.2204 12.7837 65.78 13.1267 66.4239 13.3926C67.0716 13.6605 67.6465 13.7935 68.1486 13.7935C68.5358 13.7935 68.8385 13.7241 69.0532 13.5853C69.2678 13.4427 69.3751 13.2365 69.3751 12.9687C69.3751 12.7066 69.2487 12.4888 68.9995 12.3135C68.7542 12.1342 68.4476 12.0032 68.0797 11.9203C67.7155 11.8336 67.3169 11.718 66.8838 11.5735C66.4545 11.4309 66.0559 11.2728 65.688 11.1033C65.32 10.9298 65.0096 10.6542 64.7604 10.2785C64.5151 9.90461 64.3925 9.45367 64.3925 8.92951C64.3925 8.06617 64.7336 7.37628 65.4197 6.85596C66.1096 6.33758 67.018 6.07742 68.1486 6.07742Z" fill="#1F184D"/>
<path d="M81.674 6.18547V11.6815C81.674 12.936 81.2868 13.9304 80.5164 14.6646C79.7441 15.4008 78.6997 15.7669 77.3812 15.7669C76.0512 15.7669 74.9934 15.4008 74.2076 14.6646C73.4257 13.9304 73.0348 12.936 73.0348 11.6815V6.18547H75.4265V11.6815C75.4265 12.3136 75.6066 12.8185 75.9707 13.1923C76.3387 13.5623 76.8139 13.7473 77.3965 13.7473C77.9676 13.7473 78.4256 13.5623 78.7687 13.1923C79.1155 12.8223 79.2899 12.3194 79.2899 11.6815V6.18547H81.674Z" fill="#1F184D"/>
<path d="M89.6501 13.9092H85.5336L84.8514 15.659H82.383L86.4535 6.18547H88.9142L92.885 15.659H90.3246L89.6501 13.9092ZM88.9525 12.0823L87.611 8.58276L86.2312 12.0823H88.9525Z" fill="#1F184D"/>
</svg>
