<svg width="230" height="126" viewBox="0 0 230 126" fill="none" xmlns="http://www.w3.org/2000/svg">
<mask id="mask0_1_86" maskUnits="userSpaceOnUse" x="21" y="0" width="42" height="84">
<path d="M21.2333 0.107803H62.9846V83.3698H21.2333V0.107803Z" fill="white"/>
</mask>
<g mask="url(#mask0_1_86)">
<path d="M62.9073 69.9349L62.8872 69.3591C62.8844 69.1643 62.8529 68.981 62.8357 68.7948L62.7727 68.2305L62.7383 67.9497L62.6896 67.6747C62.4576 66.1966 62.0365 64.8073 61.5438 63.4609C61.306 62.782 61.0195 62.1375 60.7388 61.4815C60.4409 60.8399 60.143 60.1953 59.8164 59.5766C59.1719 58.3219 58.4701 57.1073 57.7195 55.9242C56.9719 54.7383 56.1841 53.5781 55.3591 52.4466C53.7177 50.1693 51.9359 47.9893 50.0625 45.8581C49.1258 44.7953 48.1633 43.7469 47.175 42.7128C46.181 41.6758 45.1784 40.6617 44.1042 39.6448C43.1388 38.7253 42.1677 37.7513 41.2281 36.7802C40.2857 35.8034 39.3661 34.8151 38.4695 33.8154C36.6849 31.813 34.9805 29.7763 33.4279 27.6938C32.6458 26.6568 31.9039 25.6055 31.2107 24.5456C30.5089 23.4886 29.8615 22.4172 29.2742 21.3401C28.9734 20.8044 28.7099 20.2602 28.4406 19.7216C28.1943 19.1802 27.9365 18.6388 27.7302 18.0974C27.3005 17.0146 26.9424 15.9318 26.7477 14.8833C26.3409 12.8466 26.507 10.6982 27.226 8.94506C27.5927 8.0685 28.0997 7.2922 28.7156 6.6448C29.3286 5.99454 30.0734 5.51329 30.8698 5.16954C32.4768 4.50496 34.3474 4.53933 36.0891 5.17813C36.9599 5.49324 37.8021 5.95157 38.587 6.5073L38.7359 6.60756L38.882 6.71928L39.2057 6.97136C39.3031 7.04871 39.4005 7.12605 39.4865 7.20912C39.5781 7.2922 39.6698 7.36381 39.7557 7.45261L40.2799 7.96824C40.9846 8.65287 41.6406 9.33464 42.2995 10.0021C42.5888 9.68699 42.8781 9.37188 43.1674 9.05964L43.5971 8.59272L44.0354 8.13438C44.3276 7.83074 44.6141 7.52136 44.9062 7.22917L45.1268 7.02006C45.2042 6.95131 45.2872 6.88542 45.3646 6.81667L45.6052 6.6047C45.7599 6.46147 45.926 6.34402 46.0893 6.21798C46.2526 6.0948 46.4102 5.96016 46.582 5.85417C46.7482 5.74246 46.9172 5.62787 47.0833 5.51615C47.2581 5.41876 47.4299 5.3185 47.6018 5.2211C48.2979 4.84584 49.0141 4.55365 49.7388 4.36173C50.4664 4.16693 51.2026 4.08959 51.9216 4.10678C53.3568 4.14975 54.7432 4.60235 55.869 5.42162C56.4333 5.82839 56.9375 6.30964 57.3786 6.84532C57.8198 7.37813 58.1721 7.9797 58.4758 8.59845C58.5503 8.756 58.619 8.91355 58.6906 9.06824C58.7536 9.22865 58.8109 9.39194 58.8711 9.55522L58.9599 9.79584L59.0286 10.0451C59.0773 10.2112 59.1232 10.3745 59.169 10.5378C59.2063 10.7068 59.2406 10.8758 59.275 11.0419L59.3294 11.2912L59.3667 11.5461C59.3896 11.7151 59.4125 11.8841 59.4383 12.0503C59.4583 12.2193 59.4641 12.3883 59.4784 12.5573C59.487 12.7263 59.5099 12.8953 59.5099 13.0586C59.5128 13.2247 59.5156 13.3909 59.5185 13.5542C59.5042 13.8836 59.4984 14.213 59.4641 14.5396C59.4411 14.8662 59.3867 15.1927 59.3438 15.5136C59.2836 15.8372 59.2349 16.1581 59.1604 16.4732C58.8883 17.7365 58.4872 18.9425 58.0432 20.074C57.5992 21.2055 57.1094 22.2682 56.6052 23.2622C56.5622 23.3425 56.5221 23.4227 56.4792 23.5029C57.2755 23.0331 58.0633 22.6005 58.8396 22.1995C59.0974 21.7354 59.3495 21.257 59.5958 20.7615C60.163 19.6099 60.6987 18.3609 61.1169 16.9859C61.2286 16.6451 61.3117 16.2899 61.4063 15.9318C61.4865 15.5708 61.5753 15.207 61.6326 14.8289C61.7042 14.4537 61.7414 14.0669 61.7872 13.6745C61.7987 13.4768 61.813 13.2792 61.8245 13.0787C61.8388 12.881 61.8302 12.6833 61.8359 12.4828C61.8331 12.2852 61.8388 12.0846 61.8302 11.8813C61.8188 11.6807 61.8044 11.4774 61.793 11.2711L61.7729 10.9646L61.7299 10.6581C61.7042 10.4518 61.6755 10.2427 61.6469 10.0365C61.6096 9.83022 61.5638 9.6211 61.5208 9.41199L61.4549 9.09975L61.369 8.78751C61.3089 8.57839 61.2544 8.36928 61.1885 8.16016C61.1112 7.95391 61.0367 7.7448 60.9594 7.53855C60.6299 6.71355 60.2232 5.89141 59.6818 5.12657C59.1404 4.36173 58.4901 3.64272 57.7339 3.01537C56.2271 1.74923 54.2419 0.921363 52.1451 0.72657C51.0966 0.632039 50.0224 0.677873 48.974 0.886987C47.9284 1.09324 46.9086 1.43985 45.9346 1.89246C45.694 2.0099 45.4534 2.13022 45.2128 2.24766C44.9807 2.38516 44.7516 2.5198 44.5167 2.65444C44.2818 2.78621 44.0669 2.94089 43.8435 3.09272C43.6229 3.24454 43.3937 3.39063 43.1875 3.55964L42.8781 3.80027C42.8523 3.81746 42.8237 3.84037 42.7893 3.86042L42.6146 3.99792C42.4971 4.081 42.3997 4.17839 42.2995 4.26433C42.1849 4.12683 42.0818 3.98933 41.9701 3.87188C41.9214 3.81173 41.8583 3.74871 41.8154 3.70001L41.4917 3.42214L41.3112 3.26746L41.1193 3.12136C40.1109 2.32787 38.9766 1.62032 37.7133 1.09037C36.4529 0.55756 35.0607 0.205216 33.6026 0.122143C32.1474 0.0447993 30.6263 0.228133 29.194 0.755216C27.7674 1.27944 26.4125 2.09584 25.301 3.17006C24.1867 4.23568 23.2844 5.52188 22.6427 6.91407C22.0068 8.30626 21.6172 9.79298 21.4453 11.2854L21.3823 11.8469L21.3565 12.4055L21.3307 12.9669L21.345 13.5427L21.3651 14.1185C21.368 14.3133 21.3995 14.4966 21.4167 14.6857L21.4797 15.2471L21.5141 15.5279L21.5628 15.8029C21.7948 17.281 22.2159 18.6703 22.7086 20.0167C22.9464 20.6956 23.2328 21.343 23.5135 21.9961C23.8115 22.6378 24.1094 23.2823 24.4359 23.9039C25.0833 25.1557 25.7852 26.3703 26.5357 27.5534C27.2805 28.7393 28.0682 29.8995 28.8932 31.031C30.5346 33.3055 32.3164 35.4883 34.1898 37.6195C35.1266 38.6823 36.0891 39.7307 37.0773 40.7649C38.0714 41.8018 39.074 42.8159 40.1482 43.8328C41.1135 44.7495 42.0846 45.7263 43.0242 46.6974C43.9667 47.6742 44.8862 48.6625 45.7828 49.6622C47.5674 51.6646 49.2719 53.7013 50.8245 55.7839C51.6065 56.8208 52.3484 57.8721 53.0417 58.932C53.7435 59.9891 54.3909 61.0604 54.9781 62.1375C55.2789 62.6732 55.5424 63.2175 55.8117 63.756C56.0581 64.2974 56.3159 64.8388 56.5221 65.3802C56.9518 66.463 57.3099 67.5458 57.5047 68.5943C57.9115 70.631 57.7453 72.7794 57.0263 74.5326C56.6596 75.4091 56.1526 76.1854 55.5367 76.8328C54.9237 77.4831 54.1789 77.9643 53.3826 78.3081C51.7755 78.9727 49.9049 78.9383 48.1633 78.2995C47.2924 77.9844 46.4503 77.526 45.6654 76.9703L45.5164 76.8701L45.3703 76.7583L45.0466 76.5063C44.9492 76.4289 44.8518 76.3516 44.7659 76.2685C44.6742 76.1854 44.5826 76.1138 44.4966 76.0221L43.9724 75.5094C43.2677 74.8247 42.6117 74.143 41.9529 73.4755C41.6635 73.7906 41.3742 74.1057 41.0849 74.418L40.6552 74.8849L40.2169 75.3432C39.9247 75.6469 39.6383 75.9563 39.3461 76.2484L39.1255 76.4576C39.0482 76.5263 38.9651 76.5922 38.8878 76.6609L38.6471 76.8729C38.4924 77.0162 38.3263 77.1336 38.163 77.2596C37.9997 77.3828 37.8422 77.5175 37.6703 77.6234C37.5042 77.7352 37.3352 77.8497 37.169 77.9615C36.9943 78.0589 36.8224 78.1591 36.6505 78.2565C35.9544 78.6318 35.2383 78.924 34.5135 79.1159C33.7859 79.3107 33.0497 79.3852 32.3307 79.3708C30.8956 79.3279 29.5091 78.8753 28.3833 78.056C27.819 77.6492 27.3148 77.168 26.8737 76.6352C26.4326 76.0995 26.0802 75.4979 25.7766 74.8792C25.7021 74.7216 25.6333 74.5641 25.5617 74.4094C25.4987 74.249 25.4443 74.0857 25.3812 73.9224L25.2924 73.6818L25.2237 73.4326C25.175 73.2693 25.1292 73.1031 25.0833 72.9399C25.0461 72.7708 25.0117 72.6018 24.9773 72.4357L24.9229 72.1865L24.8885 71.9315C24.8628 71.7625 24.8398 71.5935 24.8141 71.4274C24.794 71.2583 24.7883 71.0893 24.774 70.9203C24.7654 70.7513 24.7424 70.5823 24.7424 70.4162C24.7396 70.2529 24.7367 70.0867 24.7339 69.9234C24.7482 69.594 24.7539 69.2646 24.7911 68.938C24.8112 68.6115 24.8656 68.2849 24.9086 67.9641C24.9687 67.6404 25.0174 67.3195 25.0919 67.0044C25.3641 65.7412 25.7651 64.5352 26.2091 63.4037C26.6531 62.2721 27.143 61.2094 27.6471 60.2154C27.7159 60.0836 27.7846 59.9547 27.8505 59.8229C27.2461 60.181 26.6646 60.5076 26.0917 60.8112C25.894 60.9172 25.6964 61.0175 25.4987 61.1206C25.2122 61.6305 24.9315 62.1604 24.6565 62.7162C24.0893 63.8677 23.5536 65.1167 23.1354 66.4917C23.0266 66.8326 22.9406 67.1878 22.8461 67.5458C22.7659 67.9068 22.6771 68.2706 22.6198 68.6487C22.5482 69.024 22.5109 69.4107 22.4651 69.8031C22.4536 70.0008 22.4393 70.1984 22.4279 70.3961C22.4135 70.5966 22.4221 70.7943 22.4164 70.9919C22.4193 71.1925 22.4135 71.393 22.4221 71.5964C22.4336 71.7969 22.4479 72.0003 22.4594 72.2065L22.4794 72.513L22.5224 72.8195C22.5482 73.0258 22.5768 73.2349 22.6055 73.4412C22.6427 73.6503 22.6885 73.8565 22.7315 74.0656L22.7974 74.3779L22.8833 74.6901C22.9435 74.8992 23.0008 75.1083 23.0638 75.3175C23.1411 75.5237 23.2156 75.7328 23.293 75.9391C23.6224 76.7641 24.0292 77.5862 24.5706 78.351C25.112 79.1159 25.7622 79.8349 26.5185 80.4622C28.0253 81.7284 30.0104 82.5563 32.1073 82.751C33.1557 82.8456 34.2299 82.7997 35.2784 82.5906C36.324 82.3844 37.3466 82.0378 38.3177 81.588C38.5583 81.4677 38.799 81.3474 39.0396 81.2271C39.2716 81.0925 39.5008 80.9578 39.7357 80.8232C39.9706 80.6914 40.1854 80.5339 40.4089 80.3849C40.6294 80.2331 40.8586 80.087 41.0648 79.918L41.3742 79.6774C41.4 79.6602 41.4286 79.6372 41.463 79.6172L41.6378 79.4797C41.7552 79.3966 41.8526 79.2992 41.9529 79.2133C42.0674 79.3508 42.1706 79.4883 42.2823 79.6057C42.3339 79.6659 42.394 79.7289 42.437 79.7776L42.7607 80.0555L42.9411 80.2102L43.1331 80.3563C44.1414 81.1497 45.2758 81.8573 46.5391 82.3872C47.7995 82.9201 49.1917 83.2724 50.6497 83.3526C52.1049 83.43 53.626 83.2495 55.0583 82.7224C56.4849 82.1982 57.8398 81.3818 58.9513 80.3076C60.0656 79.2419 60.968 77.9557 61.6096 76.5635C62.2456 75.1714 62.6352 73.6846 62.807 72.1922L62.8701 71.6307L62.8958 71.0721L62.9216 70.5107L62.9073 69.9349Z" fill="#439B3B"/>
</g>
<mask id="mask1_1_86" maskUnits="userSpaceOnUse" x="0" y="20" width="84" height="43">
<path d="M0.851822 20.9333H83.3518V62.4354H0.851822V20.9333Z" fill="white"/>
</mask>
<g mask="url(#mask1_1_86)">
<path d="M61.8531 57.6774C61.8531 57.6774 62.0422 57.7862 62.4117 58.0011C62.7813 58.2073 63.3341 58.5196 64.0818 58.8834C64.8266 59.2472 65.769 59.6654 66.9292 60.0579C68.0893 60.4331 69.4815 60.8026 71.1143 60.8571C71.5182 60.8657 71.9336 60.8828 72.3633 60.8513C72.793 60.8427 73.2313 60.7797 73.6839 60.7253C74.5833 60.5849 75.5229 60.35 76.4682 59.969C77.4107 59.5852 78.356 59.0524 79.2297 58.3334C80.1005 57.6144 80.894 56.7063 81.5099 55.6292C82.1229 54.555 82.5669 53.3118 82.7359 51.9855C82.905 50.662 82.8133 49.2641 82.4753 47.9034C82.1372 46.5399 81.55 45.2136 80.7766 43.9875C80.576 43.6896 80.3813 43.3802 80.1664 43.0852C80.0604 42.9448 79.9516 42.8045 79.8456 42.6641C79.8112 42.6154 79.7711 42.5524 79.731 42.5008C79.6508 42.3977 79.5706 42.2946 79.4904 42.1914C79.413 42.0969 79.3328 42.0052 79.2497 41.9107C79.413 41.7761 79.5792 41.6586 79.7195 41.5269C79.7911 41.461 79.8656 41.4008 79.9286 41.3349L79.9773 41.292L80.0003 41.269L80.0719 41.1888L80.3555 40.8651C81.0859 39.9714 81.7591 38.9831 82.3063 37.8774C82.8505 36.7716 83.2688 35.5485 83.4693 34.2422C83.6727 32.9388 83.6526 31.5524 83.3604 30.186C83.3003 29.8422 83.1857 29.5071 83.0911 29.169C82.988 28.831 82.8477 28.5045 82.7216 28.1722C82.5669 27.8513 82.4237 27.5219 82.2461 27.2125C82.0628 26.906 81.8909 26.5852 81.676 26.2987C80.8539 25.1157 79.7969 24.0787 78.5909 23.2737C77.382 22.4688 76.0328 21.8844 74.6435 21.5149L74.1193 21.3802L73.5893 21.2771L73.0594 21.1797L71.9938 21.0537L71.4581 21.0279L70.9224 20.9993L70.3753 21.0107C68.9029 21.0365 67.4792 21.2657 66.13 21.6323C64.7779 21.9961 63.463 22.4487 62.2141 23.0016C59.699 24.093 57.3385 25.448 55.0727 26.9519C53.9354 27.7024 52.824 28.4901 51.7326 29.3123C50.6354 30.1315 49.5612 30.9823 48.5013 31.8618C46.3815 33.6206 44.3219 35.4797 42.3167 37.4448C41.7466 38.0034 41.1823 38.5677 40.6266 39.1435C40.3544 39.4271 40.0852 39.7107 39.8159 39.9943C39.5581 40.2607 39.3003 40.5271 39.0424 40.7907C38.0026 41.8534 36.937 42.8904 35.8656 43.9016C33.7172 45.924 31.5229 47.8289 29.2971 49.5849C28.1857 50.4672 27.0599 51.3037 25.9284 52.0886C24.7969 52.8735 23.6596 53.6211 22.5081 54.2828C21.3594 54.9503 20.2049 55.5547 19.0505 56.0646C17.8932 56.5631 16.7388 56.9641 15.6102 57.2248L15.1891 57.3222C15.0458 57.3537 14.9083 57.3651 14.7708 57.3909C14.4958 57.4282 14.2151 57.4883 13.9487 57.4969C13.4188 57.5456 12.8544 57.5571 12.3102 57.5227C11.2216 57.4597 10.1789 57.2391 9.23073 56.8667C8.29115 56.4857 7.45469 55.9472 6.75859 55.2883C6.07682 54.6209 5.54115 53.8331 5.19167 52.9709C4.85365 52.1086 4.6875 51.1805 4.69896 50.2409C4.71901 49.3042 4.91667 48.3618 5.24609 47.4623C5.57839 46.5628 6.03672 45.7034 6.59245 44.9071C6.65547 44.8068 6.73568 44.7123 6.80729 44.6149L6.91615 44.4688L7.09662 44.2396C7.36302 43.9102 7.66953 43.6094 7.95599 43.3058C8.52891 42.6899 9.10755 42.1284 9.66328 41.567C8.99011 40.9568 8.32839 40.3753 7.70677 39.7709C7.55208 39.6219 7.39453 39.4758 7.23984 39.3297C7.09375 39.1779 6.95052 39.0318 6.81589 38.8685L6.55234 38.5763L6.4263 38.4388L6.31172 38.2956C5.67865 37.5451 5.16875 36.7401 4.77057 35.918C3.96849 34.2709 3.6763 32.5206 3.89401 30.925C4.10026 29.3209 4.82786 27.9172 5.7474 26.8315C6.21432 26.2873 6.74141 25.8347 7.27135 25.4336C7.54922 25.2532 7.8099 25.0526 8.09349 24.9065C8.23386 24.8292 8.37136 24.7519 8.50599 24.6745C8.64922 24.6058 8.78672 24.5399 8.92422 24.4769C10.0328 23.9612 11.1156 23.692 12.0638 23.5459C12.1813 23.5258 12.2987 23.5086 12.4133 23.4886C12.5279 23.4771 12.6424 23.4685 12.7513 23.4571C12.9747 23.437 13.1867 23.417 13.3901 23.3969C13.7997 23.374 14.1693 23.374 14.5044 23.3826C15.169 23.4055 15.6789 23.4628 16.0198 23.5058C16.3635 23.5516 16.5383 23.5802 16.5383 23.5802C16.5383 23.5802 16.3693 23.5287 16.0341 23.437C15.699 23.3482 15.2005 23.225 14.5273 23.1162C14.1922 23.0646 13.8141 23.0188 13.393 22.993C13.181 22.9844 12.9604 22.9787 12.7312 22.973C12.6167 22.9701 12.4992 22.9672 12.376 22.9644C12.2586 22.9701 12.1354 22.973 12.0094 22.9787C11.0096 23.0131 9.83802 23.1591 8.57188 23.5774C8.41432 23.6318 8.25391 23.6891 8.09349 23.7435C7.93594 23.8094 7.77552 23.8782 7.61224 23.9469C7.27995 24.0758 6.96771 24.262 6.63255 24.4339C5.98802 24.8149 5.32917 25.2675 4.71901 25.8404C4.11458 26.419 3.5474 27.1008 3.07188 27.8914C2.59635 28.6792 2.21536 29.5787 1.9862 30.5584C1.75703 31.5381 1.67109 32.5894 1.7513 33.6607C1.83151 34.7321 2.08073 35.8235 2.47891 36.8862C2.87708 37.9461 3.41849 38.986 4.0974 39.9513L4.21771 40.1375L4.35234 40.3151C4.43828 40.4297 4.52422 40.5414 4.60729 40.656L4.72474 40.8193L4.84792 40.9797C5.00833 41.1946 5.18307 41.3808 5.34349 41.567C5.13724 41.736 4.92812 41.8935 4.75052 42.0654C4.65599 42.1485 4.56432 42.2287 4.48125 42.3146L4.4526 42.3404L4.44115 42.3547L4.40391 42.3948L4.25495 42.5638C4.15755 42.6784 4.05443 42.7844 3.96276 42.9047C3.19505 43.8386 2.50469 44.9013 1.96042 46.0901C1.41901 47.2761 1.02656 48.5967 0.894792 50.006C0.771614 51.4097 0.911979 52.8935 1.36745 54.323C1.83151 55.7495 2.61927 57.1045 3.65625 58.2532C4.70469 59.3933 5.99089 60.3271 7.40313 60.9946C8.81823 61.6534 10.3451 62.0573 11.8891 62.2292C12.6596 62.3209 13.4302 62.3467 14.2352 62.3151C14.6419 62.3151 15.0258 62.2607 15.4182 62.2235C15.613 62.2006 15.8135 62.1862 16.0026 62.1547L16.5755 62.0516C18.1052 61.7766 19.569 61.3297 20.9813 60.7883C22.3878 60.2383 23.7484 59.5938 25.0747 58.8862C26.401 58.1815 27.6844 57.3995 28.9477 56.5802C30.2138 55.7581 31.4513 54.8873 32.663 53.9763C35.0951 52.1545 37.4526 50.1836 39.7443 48.081C40.8901 47.0297 42.0188 45.9526 43.1359 44.8269C43.4138 44.5433 43.6917 44.2597 43.9724 43.9732C44.2331 43.7011 44.4966 43.4261 44.7602 43.1539C45.2786 42.6211 45.8086 42.0883 46.35 41.5612C48.2464 39.6993 50.1971 37.9203 52.1737 36.2446C53.162 35.4024 54.1589 34.5917 55.1643 33.8125C56.1669 33.0276 57.181 32.28 58.2036 31.5724C60.2432 30.1545 62.3229 28.8912 64.4141 27.9029C65.4568 27.4016 66.5052 27.0063 67.5393 26.6826C68.5734 26.3589 69.5904 26.1641 70.5529 26.1068L70.9167 26.081L71.2919 26.0839H71.6643L72.031 26.1125L72.4005 26.1383L72.7557 26.187L73.1138 26.2386L73.4633 26.3131C74.3914 26.5107 75.2565 26.8401 76.0214 27.2899C76.7862 27.7425 77.4365 28.324 77.9607 28.9857C78.1039 29.1461 78.2042 29.3295 78.3273 29.5013C78.4448 29.6761 78.5336 29.8651 78.6425 30.0427C78.7198 30.2347 78.8229 30.4209 78.8945 30.6157C78.9576 30.8162 79.0464 31.0052 79.0893 31.2086C79.5448 32.8185 79.3643 34.6003 78.6854 36.2245C78.3503 37.0381 77.9034 37.8172 77.3849 38.5506L77.1815 38.8198L77.13 38.8857L77.0326 39.0118C76.9667 39.0977 76.8979 39.1779 76.8292 39.2552C76.6945 39.4157 76.5427 39.5675 76.3966 39.7193L75.9583 40.1748C75.3768 40.7878 74.7925 41.3435 74.231 41.9107C74.6521 42.2946 75.0703 42.6727 75.4857 43.0537C75.8925 43.4347 76.2935 43.8157 76.6945 44.1938C76.7977 44.2883 76.8865 44.3857 76.9781 44.4831C77.0727 44.5748 77.1586 44.6779 77.2474 44.781C77.3505 44.8956 77.4536 45.0102 77.5568 45.1248C77.7458 45.3453 77.9177 45.5774 78.0982 45.8037C78.7914 46.7232 79.3242 47.7086 79.6651 48.717C80.0089 49.7253 80.1664 50.7537 80.1349 51.7506C80.0977 52.7474 79.8542 53.7013 79.4646 54.5664C79.075 55.4287 78.5279 56.1993 77.8891 56.8467C77.2474 57.494 76.5141 58.0154 75.7492 58.4193C74.9815 58.8232 74.188 59.1154 73.4031 59.3274C73.0078 59.4162 72.6211 59.5164 72.2344 59.5623C71.8505 59.6339 71.4695 59.6625 71.0971 59.694C69.6161 59.8086 68.2669 59.6196 67.1096 59.3875C65.9523 59.144 64.9813 58.849 64.205 58.5826C63.4258 58.3162 62.8414 58.0784 62.449 57.9237C62.0565 57.7605 61.8531 57.6774 61.8531 57.6774Z" fill="#1F184D"/>
</g>
<path d="M74.825 88.5512H84.5531V91.9887H71.0437V69.5189H74.825V88.5512Z" fill="#1F184D"/>
<path d="M89.7537 72.6929C92.0453 70.5158 94.867 69.4273 98.2214 69.4273C101.582 69.4273 104.409 70.5158 106.701 72.6929C108.992 74.8643 110.138 77.5512 110.138 80.7596C110.138 83.9679 108.992 86.6692 106.701 88.8606C104.409 91.0549 101.582 92.1492 98.2214 92.1492C94.867 92.1492 92.0453 91.0549 89.7537 88.8606C87.462 86.6692 86.3162 83.9679 86.3162 80.7596C86.3162 77.5512 87.462 74.8643 89.7537 72.6929ZM98.2558 72.8304C96.0328 72.8304 94.125 73.5952 92.538 75.1221C90.9568 76.6518 90.1662 78.5309 90.1662 80.7596C90.1662 82.9825 90.9625 84.8702 92.561 86.42C94.1565 87.9726 96.0558 88.746 98.2558 88.746C100.461 88.746 102.346 87.9726 103.905 86.42C105.469 84.8702 106.254 82.9825 106.254 80.7596C106.254 78.5309 105.469 76.6518 103.905 75.1221C102.346 73.5952 100.461 72.8304 98.2558 72.8304Z" fill="#1F184D"/>
<path d="M129.526 72.922H122.399V91.9887H118.606V72.922H111.513V69.5189H129.526V72.922Z" fill="#1F184D"/>
<path d="M145.887 63.9387L141.98 67.0783H138.703L142.106 62.3345L145.887 63.9387ZM148.809 72.922H136.549V78.995H147.526V82.3981H136.549V88.5856H149.199V91.9887H132.767V69.5189H148.809V72.922Z" fill="#1F184D"/>
<path d="M168.066 91.9887L163.964 85.1825C163.749 85.2054 163.405 85.2168 162.933 85.2168H157.605V91.9887H153.823V69.5189H162.933C165.803 69.5189 168.032 70.1892 169.613 71.5241C171.194 72.8619 171.985 74.7525 171.985 77.196C171.985 78.9921 171.584 80.5132 170.782 81.7564C169.98 82.9939 168.828 83.9049 167.333 84.4835L172.375 91.9887H168.066ZM157.605 81.8137H162.933C166.568 81.8137 168.387 80.3069 168.387 77.2877C168.387 74.3773 166.568 72.922 162.933 72.922H157.605V81.8137Z" fill="#1F184D"/>
<path d="M180.811 91.9887H177.03V69.5189H180.811V91.9887Z" fill="#1F184D"/>
<path d="M196.669 69.4273C198.251 69.4273 199.792 69.7338 201.299 70.3439C202.811 70.957 204.112 71.8049 205.206 72.8877L202.994 75.6492C202.175 74.7726 201.21 74.0765 200.095 73.5637C198.987 73.0538 197.867 72.796 196.738 72.796C194.484 72.796 192.582 73.5637 191.032 75.0992C189.479 76.6288 188.706 78.4908 188.706 80.6908C188.706 82.9137 189.479 84.7929 191.032 86.3283C192.582 87.858 194.484 88.62 196.738 88.62C199.067 88.62 201.152 87.732 202.994 85.9502L205.24 88.4596C204.086 89.5911 202.737 90.4877 201.195 91.1523C199.651 91.8169 198.102 92.1492 196.543 92.1492C193.243 92.1492 190.47 91.0549 188.225 88.8606C185.979 86.6692 184.856 83.9564 184.856 80.7252C184.856 77.5398 185.993 74.8643 188.27 72.6929C190.553 70.5158 193.352 69.4273 196.669 69.4273Z" fill="#1F184D"/>
<path d="M223.602 86.9127H212.27L210.115 91.9887H206.174L216.085 69.5189H219.97L229.789 91.9887H225.745L223.602 86.9127ZM222.158 83.5439L217.918 73.5637L213.679 83.5439H222.158Z" fill="#1F184D"/>
<path d="M85.0687 125.109C82.1497 125.109 79.5143 124.479 77.1625 123.219C74.8164 121.958 72.9802 120.222 71.651 118.005C70.3219 115.791 69.6573 113.301 69.6573 110.534C69.6573 107.779 70.3219 105.292 71.651 103.075C72.9802 100.861 74.8164 99.1218 77.1625 97.8614C79.5143 96.601 82.1497 95.9708 85.0687 95.9708C87.9935 95.9708 90.626 96.601 92.9635 97.8614C95.301 99.1218 97.1372 100.861 98.475 103.075C99.8185 105.292 100.492 107.779 100.492 110.534C100.492 113.301 99.8185 115.791 98.475 118.005C97.1372 120.222 95.301 121.958 92.9635 123.219C90.626 124.479 87.9935 125.109 85.0687 125.109ZM85.0687 119.552C86.7331 119.552 88.237 119.171 89.5833 118.406C90.9268 117.644 91.981 116.579 92.7458 115.209C93.5078 113.843 93.8917 112.285 93.8917 110.534C93.8917 108.793 93.5078 107.24 92.7458 105.871C91.981 104.504 90.9268 103.439 89.5833 102.674C88.237 101.912 86.7331 101.528 85.0687 101.528C83.4102 101.528 81.9091 101.912 80.5656 102.674C79.2193 103.439 78.1651 104.504 77.4031 105.871C76.6383 107.24 76.2573 108.793 76.2573 110.534C76.2573 112.285 76.6383 113.843 77.4031 115.209C78.1651 116.579 79.2193 117.644 80.5656 118.406C81.9091 119.171 83.4102 119.552 85.0687 119.552Z" fill="#439B3B"/>
<path d="M131.249 96.452V124.628H125.898L111.85 107.521V124.628H105.411V96.452H110.796L124.809 113.559V96.452H131.249Z" fill="#439B3B"/>
<path d="M131.249 96.452V124.628H125.898L111.85 107.521V124.628H105.411V96.452H110.796L124.81 113.559V96.452H131.249Z" fill="#439B3B"/>
<path d="M137.938 96.452H144.458V119.311H158.586V124.628H137.938V96.452Z" fill="#439B3B"/>
<path d="M162.254 96.452H168.774V124.628H162.254V96.452Z" fill="#439B3B"/>
<path d="M201.297 96.452V124.628H195.946L181.898 107.521V124.628H175.458V96.452H180.844L194.857 113.559V96.452H201.297Z" fill="#439B3B"/>
<path d="M229.803 119.392V124.628H207.986V96.452H229.276V101.688H214.46V107.807H227.546V112.872H214.46V119.392H229.803Z" fill="#439B3B"/>
<path d="M92.4633 53.0236C94.5717 53.0236 96.4222 53.5478 98.0206 54.5934L96.6685 57.3892C95.9352 56.9624 95.1446 56.61 94.2967 56.335C93.4487 56.06 92.7383 55.9225 92.1654 55.9225C91.1342 55.9225 90.6185 56.2634 90.6185 56.9423C90.6185 57.3864 90.8706 57.7416 91.3748 58.008C91.8847 58.2772 92.5092 58.5093 93.2425 58.7069C93.9758 58.8989 94.7034 59.1309 95.431 59.4059C96.1644 59.6809 96.7831 60.1278 97.2873 60.7465C97.7972 61.3653 98.055 62.1444 98.055 63.084C98.055 64.4361 97.5222 65.496 96.4623 66.258C95.4081 67.0142 94.0618 67.3923 92.429 67.3923C91.2602 67.3923 90.1029 67.1918 88.9571 66.785C87.817 66.3811 86.8287 65.8311 85.9894 65.135L87.3758 62.3736C88.0862 62.9923 88.9227 63.5022 89.8852 63.8975C90.8534 64.2957 91.7128 64.4934 92.4633 64.4934C93.042 64.4934 93.4946 64.3903 93.8154 64.184C94.1362 63.972 94.2967 63.6655 94.2967 63.2673C94.2967 62.8778 94.1076 62.5541 93.7352 62.2934C93.3685 62.027 92.9102 61.8322 92.3602 61.709C91.8159 61.5801 91.2201 61.4082 90.5727 61.1934C89.931 60.9814 89.3352 60.7465 88.7852 60.4944C88.2352 60.2366 87.7711 59.827 87.3987 59.2684C87.0321 58.7127 86.8487 58.0423 86.8487 57.2632C86.8487 55.9798 87.3586 54.9543 88.3842 54.1809C89.4154 53.4103 90.7732 53.0236 92.4633 53.0236Z" fill="#1F184D"/>
<path d="M112.68 53.184V61.3538C112.68 63.2187 112.102 64.6968 110.95 65.7882C109.796 66.8825 108.235 67.4267 106.264 67.4267C104.276 67.4267 102.695 66.8825 101.52 65.7882C100.351 64.6968 99.7669 63.2187 99.7669 61.3538V53.184H103.342V61.3538C103.342 62.2934 103.611 63.0439 104.155 63.5996C104.705 64.1496 105.416 64.4246 106.287 64.4246C107.14 64.4246 107.825 64.1496 108.338 63.5996C108.856 63.0496 109.117 62.302 109.117 61.3538V53.184H112.68Z" fill="#1F184D"/>
<path d="M124.603 64.6653H118.45L117.43 67.2663H113.74L119.825 53.184H123.503L129.438 67.2663H125.611L124.603 64.6653ZM123.56 61.9496L121.555 56.7476L119.492 61.9496H123.56Z" fill="#1F184D"/>
</svg>
