<svg width="41" height="42" viewBox="0 0 41 42" fill="none" xmlns="http://www.w3.org/2000/svg">
<path d="M12.3 33.3C10.045 33.3 8.2205 35.145 8.2205 37.4C8.2205 39.655 10.045 41.5 12.3 41.5C14.555 41.5 16.4 39.655 16.4 37.4C16.4 35.145 14.555 33.3 12.3 33.3ZM0 0.5V4.6H4.1L11.48 20.1595L8.7125 25.182C8.3845 25.756 8.2 26.4325 8.2 27.15C8.2 29.405 10.045 31.25 12.3 31.25H36.9V27.15H13.161C12.874 27.15 12.6485 26.9245 12.6485 26.6375L12.71 26.3915L14.555 23.05H29.8275C31.365 23.05 32.718 22.2095 33.415 20.9385L40.754 7.634C40.918 7.347 41 6.9985 41 6.65C41 5.5225 40.0775 4.6 38.95 4.6H8.6305L6.7035 0.5H0ZM32.8 33.3C30.545 33.3 28.7205 35.145 28.7205 37.4C28.7205 39.655 30.545 41.5 32.8 41.5C35.055 41.5 36.9 39.655 36.9 37.4C36.9 35.145 35.055 33.3 32.8 33.3Z" fill="#235601"/>
</svg>
