<svg width="22" height="23" viewBox="0 0 22 23" fill="none" xmlns="http://www.w3.org/2000/svg">
<g clip-path="url(#clip0_2_557)">
<path d="M19.6107 10.6123V11.4296C19.6096 13.3452 18.9894 15.2091 17.8424 16.7434C16.6954 18.2777 15.0832 19.4001 13.2462 19.9432C11.4092 20.4864 9.44586 20.4211 7.64897 19.7573C5.85208 19.0934 4.31792 17.8665 3.27529 16.2595C2.23267 14.6525 1.73745 12.7515 1.86349 10.84C1.98953 8.92857 2.73008 7.10907 3.97469 5.65288C5.2193 4.19669 6.90128 3.18184 8.76979 2.75967C10.6383 2.33751 12.5932 2.53065 14.343 3.3103" stroke="#34903B" stroke-width="1.77665" stroke-linecap="round" stroke-linejoin="round"/>
<path d="M8.0625 10.5413L10.7275 13.2062L19.6107 4.323" stroke="#34903B" stroke-width="1.77665" stroke-linecap="round" stroke-linejoin="round"/>
</g>
<defs>
<clipPath id="clip0_2_557">
<rect width="21.3198" height="21.3198" fill="white" transform="translate(0.067749 0.769653)"/>
</clipPath>
</defs>
</svg>
