<svg width="45" height="46" viewBox="0 0 45 46" fill="none" xmlns="http://www.w3.org/2000/svg">
<g clip-path="url(#clip0_2_228)">
<path d="M30.0806 26.75H14.9194C12.4553 26.753 10.0929 27.7332 8.35055 29.4755C6.60816 31.2179 5.62798 33.5803 5.625 36.0444V45.5H39.375V36.0444C39.372 33.5803 38.3918 31.2179 36.6495 29.4755C34.9071 27.7332 32.5447 26.753 30.0806 26.75Z" fill="#235601"/>
<path d="M22.5 23C28.7132 23 33.75 17.9632 33.75 11.75C33.75 5.5368 28.7132 0.5 22.5 0.5C16.2868 0.5 11.25 5.5368 11.25 11.75C11.25 17.9632 16.2868 23 22.5 23Z" fill="#235601"/>
</g>
<defs>
<clipPath id="clip0_2_228">
<rect width="45" height="45" fill="white" transform="translate(0 0.5)"/>
</clipPath>
</defs>
</svg>
