<svg width="24" height="24" viewBox="0 0 24 24" xmlns="http://www.w3.org/2000/svg">
    <g id="phone">
        <path id="Vector" d="M20.5551 4.34219C18.404 2.18594 15.5393 1 12.4949 1C6.21094 1 1.09754 6.11339 1.09754 12.3973C1.09754 14.4047 1.62121 16.3658 2.61719 18.096L1 24L7.04263 22.4136C8.70603 23.3223 10.5799 23.7998 12.4897 23.7998H12.4949C18.7737 23.7998 24 18.6864 24 12.4025C24 9.35804 22.7063 6.49844 20.5551 4.34219ZM12.4949 21.8797C10.7904 21.8797 9.12187 21.4228 7.66897 20.5603L7.325 20.3549L3.74152 21.2944L4.69643 17.7982L4.47054 17.4388C3.52076 15.9295 3.02277 14.1891 3.02277 12.3973C3.02277 7.17612 7.27366 2.92522 12.5 2.92522C15.031 2.92522 17.408 3.91094 19.1946 5.70268C20.9813 7.49442 22.0799 9.87143 22.0748 12.4025C22.0748 17.6288 17.7161 21.8797 12.4949 21.8797ZM17.6904 14.7846C17.408 14.6408 16.0065 13.9529 15.7446 13.8605C15.4828 13.7629 15.2929 13.7167 15.1029 14.0042C14.9129 14.2917 14.3688 14.9283 14.1993 15.1234C14.035 15.3134 13.8656 15.3391 13.5833 15.1953C11.9096 14.3585 10.8109 13.7013 9.70714 11.8069C9.41451 11.3038 9.99978 11.3397 10.544 10.2513C10.6364 10.0614 10.5902 9.8971 10.5183 9.75335C10.4464 9.6096 9.87656 8.20804 9.6404 7.63817C9.40938 7.08371 9.17321 7.16071 8.99866 7.15045C8.83438 7.14018 8.64442 7.14018 8.45446 7.14018C8.26451 7.14018 7.95647 7.21205 7.69464 7.49442C7.43281 7.78192 6.69866 8.46987 6.69866 9.87143C6.69866 11.273 7.72031 12.6283 7.85893 12.8183C8.00268 13.0083 9.86629 15.8833 12.7259 17.1205C14.533 17.9009 15.2415 17.9676 16.1451 17.8342C16.6944 17.752 17.829 17.1462 18.0652 16.4788C18.3013 15.8114 18.3013 15.2415 18.2295 15.1234C18.1627 14.9951 17.9728 14.9232 17.6904 14.7846Z"/>
    </g>
</svg>
